<svg xmlns="http://www.w3.org/2000/svg" xmlns:xlink="http://www.w3.org/1999/xlink" width="509.975" height="248.987">
  <defs>
    <path id="a" d="M95.618 58.568h75.231v44.062H95.618z"/>
  </defs>
  <clipPath id="b">
    <use xlink:href="#a" overflow="visible"/>
  </clipPath>
  <path clip-path="url(#b)" fill="none" stroke="#FFF" stroke-width="3" d="M167.646 94.242c-9.751-26.234-41.78-34.75-65.429-22.176"/>
  <defs>
    <path id="c" d="M-127.263-162.694h769v567h-769z"/>
  </defs>
  <clipPath id="d">
    <use xlink:href="#c" overflow="visible"/>
  </clipPath>
  <path clip-path="url(#d)" fill="#FFF" d="M88.03 56.066h29.342a5.343 5.343 0 0 1 5.337 5.337 5.342 5.342 0 0 1-5.337 5.336H88.03a5.343 5.343 0 0 1-5.339-5.336 5.345 5.345 0 0 1 5.339-5.337m29.343 8.232c1.596 0 2.893-1.3 2.893-2.895s-1.297-2.893-2.893-2.893H88.03c-1.596 0-2.895 1.298-2.895 2.893s1.299 2.895 2.895 2.895h29.343z"/>
  <path clip-path="url(#d)" fill="none" stroke="#FFF" d="M88.03 56.066h29.342a5.343 5.343 0 0 1 5.337 5.337 5.342 5.342 0 0 1-5.337 5.336H88.03a5.343 5.343 0 0 1-5.339-5.336 5.345 5.345 0 0 1 5.339-5.337m29.343 8.232c1.596 0 2.893-1.3 2.893-2.895s-1.297-2.893-2.893-2.893H88.03c-1.596 0-2.895 1.298-2.895 2.893s1.299 2.895 2.895 2.895h29.343z"/>
  <path clip-path="url(#d)" fill="#FFF" d="M102.692 35.171a8.823 8.823 0 0 1 8.581 6.636c5.267.765 9.268 5.282 9.268 10.673v1.222H84.863V52.48c0-5.384 3.991-9.901 9.246-10.672a8.822 8.822 0 0 1 8.583-6.637m15.315 16.087c-.571-3.851-3.801-6.875-7.82-7.107l-.989-.057-.148-.981c-.482-3.185-3.155-5.497-6.358-5.497-3.205 0-5.879 2.312-6.358 5.496l-.148.981-.989.058c-4.008.236-7.23 3.261-7.8 7.107h30.61z"/>
  <path clip-path="url(#d)" fill="none" stroke="#FFF" d="M102.692 35.171a8.823 8.823 0 0 1 8.581 6.636c5.267.765 9.268 5.282 9.268 10.673v1.222H84.863V52.48c0-5.384 3.991-9.901 9.246-10.672a8.822 8.822 0 0 1 8.583-6.637m15.315 16.087c-.571-3.851-3.801-6.875-7.82-7.107l-.989-.057-.148-.981c-.482-3.185-3.155-5.497-6.358-5.497-3.205 0-5.879 2.312-6.358 5.496l-.148.981-.989.058c-4.008.236-7.23 3.261-7.8 7.107h30.61z"/>
  <path fill="#FFF" d="M95.619 41.65h13.731v2.444H95.619z"/>
  <path fill="none" stroke="#FFF" d="M95.619 41.65h13.731v2.444H95.619z"/>
  <defs>
    <path id="e" d="M-127.263-162.694h769v567h-769z"/>
  </defs>
  <clipPath id="f">
    <use xlink:href="#e" overflow="visible"/>
  </clipPath>
  <path clip-path="url(#f)" fill="none" stroke="#FFF" d="M186.545 46.056C167.094 19.875 134.687 4.219 99.696 7.588c-53.013 5.105-91.877 51.95-86.805 104.631 5.073 52.681 52.161 91.25 105.175 86.146 34.784-3.35 63.476-24.668 77.663-53.814"/>
  <path clip-path="url(#f)" fill="none" stroke="#FFF" d="M174.959 55.067c-12.518-18.083-31.817-31.566-55.141-36.312C72.065 9.041 25.526 39.634 15.871 87.088c-9.654 47.454 21.231 93.799 68.985 103.516 31.332 6.374 62.141-4.604 82.352-26.312"/>
  <path clip-path="url(#f)" fill="none" stroke="#FFF" d="M181.171 52.747c-16.814-23.482-44.049-39.2-75.265-40.29C52.679 10.598 8.034 51.97 6.187 104.862s39.804 97.277 93.03 99.136c34.923 1.22 66.153-16.171 84.023-43.216"/>
  <path clip-path="url(#f)" fill="#FFF" d="M137.744 136.446c-11.825-21.44-21.825-43.44-34.525-64.932"/>
  <path clip-path="url(#f)" fill="none" stroke="#FFF" stroke-width="3" d="M137.744 136.446c-11.825-21.44-21.825-43.44-34.525-64.932"/>
  <path clip-path="url(#f)" fill="#C65C54" d="M115.416 110.634c-4.879-1.212-7.835-6.057-13.144-5.988-4.812.062-7.251 5.8-11.92 6.3-1.939.208-1.96 3.266 0 3.056 3.744-.4 6.088-2.699 8.985-4.886 5.322-4.015 10.149 3.196 15.267 4.467 1.914.475 2.725-2.474.812-2.949"/>
  <path clip-path="url(#f)" fill="#FFF" d="M115.416 110.634c-4.879-1.212-7.835-6.057-13.144-5.988-4.812.062-7.251 5.8-11.92 6.3-1.939.208-1.96 3.266 0 3.056 3.744-.4 6.088-2.699 8.985-4.886 5.322-4.015 10.149 3.196 15.267 4.467 1.914.475 2.725-2.474.812-2.949"/>
  <path clip-path="url(#f)" fill="none" stroke="#FFF" d="M115.416 110.634c-4.879-1.212-7.835-6.057-13.144-5.988-4.812.062-7.251 5.8-11.92 6.3-1.939.208-1.96 3.266 0 3.056 3.744-.4 6.088-2.699 8.985-4.886 5.322-4.015 10.149 3.196 15.267 4.467 1.914.475 2.725-2.474.812-2.949z"/>
  <g>
    <defs>
      <path id="g" d="M33.512 36.211h71.725v130.743H33.512z"/>
    </defs>
    <clipPath id="h">
      <use xlink:href="#g" overflow="visible"/>
    </clipPath>
    <path clip-path="url(#h)" fill="none" stroke="#FFF" stroke-width="3" d="M102.7 71.624c-24.082-10.723-51.742-1.135-61.782 21.412-10.038 22.549 1.346 49.52 25.428 60.24"/>
  </g>
  <path fill="none" stroke="#FFF" stroke-width="3" d="M64.431 153.472l37.236-81.629m-36.665 81.171l37.236-81.629"/>
  <g>
    <defs>
      <path id="i" d="M-127.263-162.694h769v567h-769z"/>
    </defs>
    <clipPath id="j">
      <use xlink:href="#i" overflow="visible"/>
    </clipPath>
    <path clip-path="url(#j)" fill="#FFF" d="M134.814 101.642a170.643 170.643 0 0 1-12.608-18.398V69.188H83.412v13.699c-3.968 6.588-8.747 13.575-12.824 18.747-5.724 7.257-8.749 15.976-8.749 25.21 0 22.53 18.329 40.86 40.857 40.86 11.758 0 22.36-5.001 29.821-12.978-.259-1.393.001-2.896.782-4.059-.049-.152-.1-.303-.135-.46-7.03 9.146-18.069 15.054-30.468 15.054-21.181 0-38.413-17.233-38.413-38.418 0-8.682 2.843-16.875 8.224-23.696 4.197-5.325 9.122-12.537 13.174-19.292l.175-.29V71.632h33.907V83.91l.168.287a173.02 173.02 0 0 0 12.964 18.957c4.77 6.051 7.54 13.18 8.106 20.769.25-1.422 1.06-2.438 2.118-3.052-1.022-6.999-3.836-13.559-8.305-19.229"/>
    <path clip-path="url(#j)" fill="none" stroke="#FFF" d="M134.814 101.642a170.643 170.643 0 0 1-12.608-18.398V69.188H83.412v13.699c-3.968 6.588-8.747 13.575-12.824 18.747-5.724 7.257-8.749 15.976-8.749 25.21 0 22.53 18.329 40.86 40.857 40.86 11.758 0 22.36-5.001 29.821-12.978-.259-1.393.001-2.896.782-4.059-.049-.152-.1-.303-.135-.46-7.03 9.146-18.069 15.054-30.468 15.054-21.181 0-38.413-17.233-38.413-38.418 0-8.682 2.843-16.875 8.224-23.696 4.197-5.325 9.122-12.537 13.174-19.292l.175-.29V71.632h33.907V83.91l.168.287a173.02 173.02 0 0 0 12.964 18.957c4.77 6.051 7.54 13.18 8.106 20.769.25-1.422 1.06-2.438 2.118-3.052-1.022-6.999-3.836-13.559-8.305-19.229z"/>
  </g>
  <path fill="#FFF" d="M115.782 113.976l-9.279-42.352 2.728-.598 9.279 42.352z"/>
  <path fill="none" stroke="#FFF" d="M115.782 113.976l-9.279-42.352 2.728-.598 9.279 42.352z" stroke-width=".99997"/>
  <path fill="#FFF" d="M89.578 113.93l-2.388-.513 9.288-43.263 2.388.513z"/>
  <path fill="none" stroke="#FFF" d="M89.578 113.93l-2.388-.513 9.288-43.263 2.388.513z" stroke-width=".99998"/>
  <g>
    <defs>
      <path id="k" d="M-127.263-162.694h769v567h-769z"/>
    </defs>
    <clipPath id="l">
      <use xlink:href="#k" overflow="visible"/>
    </clipPath>
    <path clip-path="url(#l)" fill="#FFF" d="M393.896 228.081c-.617-1.548-.617-3.636 0-6.265.619-2.632 2.203-5.88 4.756-9.743 2.551-3.868 6.611-8.509 12.18-13.92 4.332-4.024 10.207-8.933 17.631-14.732s15.312-11.796 23.664-17.98a607.586 607.586 0 0 1-5.451 15.08c-2.088 5.568-4.523 11.677-7.309 18.328-2.168 5.104-5.527 9.78-10.092 14.036-4.561 4.252-9.24 7.888-14.035 10.904-4.793 3.016-9.084 5.22-12.877 6.612-3.787 1.392-5.992 1.699-6.611.928-.618-.62-1.237-1.704-1.856-3.248m46.63-13.688l-.232.232c0 .152-.08.231-.23.231-.312 0-.465-.079-.465-.231-.312-.62-.232-.928.232-.928.307-.465.615-.544.928-.232v.232c.152 0 .076.151-.232.464v.232zm-2.783 4.408c0 .152-.08.232-.232.232l-.232.231-.232.232c0 .151-.08.231-.23.231h-.232c-.312 0-.465-.231-.465-.695 0-.62.232-.929.697-.929 0-.155.076-.231.23-.231l.465-.464.465.464c0 .308-.08.54-.232.696v.233zm-3.015 3.248l-.232.232c0 .151-.076.231-.232.231 0 .152-.076.232-.232.232l-.463-.464v-.232l.463-.464c.156-.312.312-.464.465-.464.156 0 .232.076.232.231V222.049zm-12.065.928c-.309-.312-.465-.62-.465-.928l.232-.232c.312-.312.619-.231.928.232V222.744h-.232v.231h-.463zm-3.016 1.624c0-.464.23-.695.695-.695l.232-.232c.463 0 .695.152.695.464 0 .152-.035.232-.115.232-.076 0-.117.076-.117.231-.152 0-.232.076-.232.232h-.23c0 .152-.076.231-.232.231v.232h-.464c-.15-.156-.23-.312-.23-.464v-.231zm-1.625 6.728c0 .151-.076.231-.232.231-.928.772-1.891 1.353-2.898 1.74a39.115 39.115 0 0 1-3.133 1.044c-.771.309-1.584.616-2.436.928-.848.309-1.66.696-2.438 1.16h-.23a9.502 9.502 0 0 1-1.16.464 2.334 2.334 0 0 1-1.045.232h-.812c-.15 0-.23-.08-.23-.232-.152-.155.08-.388.695-.695.156 0 .545-.116 1.16-.349.619-.231 1.084-.348 1.393-.348a8.492 8.492 0 0 1 1.16-.464 9.598 9.598 0 0 0 1.16-.464c2.318-1.084 4.176-2.088 5.566-3.017.465-.312.928-.58 1.393-.812.465-.232.928-.504 1.393-.812 1.24-.775 2.436-1.548 3.596-2.319a34.939 34.939 0 0 0 3.363-2.553 9.076 9.076 0 0 1 1.393-1.159l.465-.465 1.391-1.392c.312-.312.621-.544.928-.696v-.231c1.084-.929 1.705-1.393 1.857-1.393h.23l.232.232c0 .308-.463.928-1.391 1.855-.93.929-1.393 1.469-1.393 1.624a69.611 69.611 0 0 1-9.977 7.891m12.065-4.872c0 .151-.076.231-.232.231l-.463.232c-.309 0-.465-.08-.465-.232v-.464l.232-.231c.156 0 .232-.08.232-.232.154 0 .23-.08.23-.231h.232c.312.151.465.464.465.928h-.231zm-2.785 2.32a6.2 6.2 0 0 1-1.623 1.159h-.232c-.152 0-.232-.08-.232-.231v-.464c.156-.156.465-.389.93-.696l.23-.232c.156-.155.312-.231.465-.231l.463.464v.231zm-5.104 3.712a1.896 1.896 0 0 1-.463.348 1.828 1.828 0 0 0-.465.348c-.152.152-.465.232-.928.232-.465 0-.695-.156-.695-.464 0-.156.08-.232.23-.232.156-.156.312-.271.465-.348.156-.08.312-.196.463-.349.312-.312.777-.619 1.393-.928.156 0 .232-.04.232-.116 0-.079.08-.115.232-.115h.232l.463.231c.156.152-.076.54-.695 1.16l-.464.233zm-7.191 3.48l-.232.464h-.462c-.465 0-.697-.08-.697-.231l.232-.464h.232v-.232h.232c.154 0 .23-.08.23-.232h.232l.232.465v.23zm-3.481 1.624c-.152.309-.539.464-1.16.464l-.463.232h-.464v.231l-.232-.231c-.152 0-.23-.08-.23-.232 0-.464.23-.695.695-.695h.232c.156-.156.311-.232.463-.232.156 0 .271-.04.348-.116.08-.08.197-.116.35-.116l.463.232v.463zm-4.64 1.392c-.15.308-.615.615-1.391.928-.465.151-.848.231-1.16.231 0 .152-.152.232-.465.232-.615 0-.928-.156-.928-.464 0-.312.232-.464.695-.464.312-.312.812-.544 1.51-.696.695-.156 1.199-.232 1.508-.232.156 0 .23.076.23.232v.233zm-5.799-4.408c-.928 0-1.393-.156-1.393-.464 0-.312.156-.544.465-.696.311-.156.543-.232.695-.232.775-.312 1.936-.62 3.48-.928.463 0 1.008-.156 1.623-.464.928-.156 1.857-.464 2.785-.928l2.783-1.393h.232c.156-.156.58-.428 1.275-.812.697-.389 1.588-.893 2.668-1.508.621-.312 1.16-.62 1.625-.929.463-.312.775-.464.928-.464h.232c.156 0 .23.076.23.232v.231c-.615.616-1.391 1.16-2.318 1.624-.309.616-.93 1.16-1.857 1.624s-1.775.849-2.551 1.16c-.152 0-.27.036-.348.116-.076.076-.193.116-.35.116l-.463.231a77.05 77.05 0 0 1-4.525 2.088 23.88 23.88 0 0 1-4.523 1.393h-.693zm56.375-93.265c-.156-.151-.08-.54.232-1.159l.232-.232v-.232c.465-.151.771-.151.928 0v.232c0 .312-.115.62-.348.928-.232.312-.504.464-.812.464h-.232zm-.463 1.393c0 .156-.156.231-.465.231h-.232c-.154-.151-.23-.308-.23-.464l.695-.695h.232l.232.231v.232c.15 0 .15.08 0 .231l-.232.234zm-.928 1.392h-.232v.232h-.232c-.156 0-.232-.076-.232-.232h-.23v-.464c.15 0 .23-.036.23-.116 0-.076.076-.115.232-.115.152 0 .309.079.465.231v.464zm-1.857 2.088c0 .62-.23.929-.695.929v.231l-.232.232c-.156 0-.232-.036-.232-.116 0-.076-.078-.116-.23-.116 0-.308.076-.616.23-.928 0-.152.076-.232.232-.232v-.231c.152-.152.309-.232.465-.232l.463.232v.231zm-1.623 2.32c-.156.156-.312.232-.465.232 0 .312-.156.464-.463.464l-.232-.232v-.464l.232-.232.463-.464c.309 0 .465.08.465.232v.464zm-1.393 1.624h-.232c0 .156-.08.232-.23.232-.156 0-.232-.076-.232-.232h-.232v-.232c0-.308.152-.464.465-.464.15 0 .307.08.463.232v.464zm-2.32 2.32l-.23-.232c-.156-.152-.156-.308 0-.464v-.232l.23-.231h.232l.232.231c.152.156.232.312.232.465-.311.311-.544.463-.696.463m-.463.928c-.312.312-.545.464-.697.464-.154 0-.311-.076-.463-.232l-.232-.231.232-.232.232-.231v-.232h.463c.152 0 .309.08.465.232v.462zm-1.855 2.088h-.464l-.232-.232v-.464h.232c0-.151.076-.231.232-.231l.463.231c0 .156-.039.232-.115.232-.08 0-.115.08-.115.231v.233zm22.734-34.569c.309-.615.465-1.159.465-1.624.152-.308.309-.695.463-1.159.152-.465.309-.849.465-1.16.309-.464.615-1.16.928-2.088 0-.152.076-.309.232-.464.309-1.08.539-1.7.695-1.856 0-.152.037-.232.117-.232.076 0 .115-.075.115-.231l.232-.232c.152 0 .309.08.463.232v.696c0 .312-.078.659-.23 1.044a14.78 14.78 0 0 1-.465 1.044l-.232.231-.23.696a22.29 22.29 0 0 0-.812 2.436 35.254 35.254 0 0 0-.58 2.437c0-.152-.156.231-.465 1.16-.311.62-.543.928-.695.928 0 .312-.115.852-.348 1.624-.232.776-.504 1.315-.812 1.624l-.232.231h-.462v-.231c0-.309.076-.812.23-1.508.152-.696.385-1.196.697-1.508.305-.929.461-1.625.461-2.09m5.336-5.103c.309-.464.5-.964.58-1.508.076-.54.27-.964.58-1.276 0-.308.076-.616.232-.928 0-.616.232-1.16.695-1.624 0-.152.117-.384.35-.696.23-.308.5-.464.811-.464l.232.232v.928c-.312 1.24-.775 2.244-1.393 3.016l-.463.929a3.561 3.561 0 0 0-.58 1.508c-.08.544-.271 1.124-.58 1.739 0 .156-.156.544-.465 1.16-.311 1.24-.619 2.244-.928 3.017a20.1 20.1 0 0 0-.695 1.972c-.156.544-.389.812-.695.812l-.232-.231v-.464c0-.616.307-1.624.928-3.017v-.231c.309-.616.615-1.544.928-2.784l.695-2.09zm-3.248 10.208c0-.152.076-.232.232-.232-.156 0-.232-.036-.232-.115 0-.076.076-.116.232-.116v-.232h.232c.309 0 .465.08.465.232v.928l-.465.464c-.156 0-.232-.076-.232-.231h-.232V126.001zm.232 2.552v.232c-.156 0-.232.08-.232.231h-.23c-.156 0-.232-.076-.232-.231-.156 0-.232-.076-.232-.232v-.463c0-.152.152-.232.465-.232.15 0 .383.156.695.465-.001.154-.081.23-.234.23m1.625 15.08h.462l.232.232c0 .312-.156.58-.465.812-.311.232-.619.348-.928.348-.619.312-.852.465-.695.465l-.232.231c-.312 0-.463-.151-.463-.464 0-.464.15-.696.463-.696.309-.308.541-.464.697-.464l.929-.464zm-38.281-6.728l.232-.232v-.696c.156-.151.232-.464.232-.928 0-.152.039-.308.115-.464a.986.986 0 0 0 .117-.464c.156-.464.23-.929.23-1.393s.076-.848.232-1.159c.309-.772.541-1.624.697-2.553.15-.928.383-1.775.695-2.552 0-.152.152-.384.465-.696v-.231c0-.152.035-.232.115-.232.076 0 .115-.076.115-.231 0-.152.076-.309.232-.465-.156-.308-.115-.888.115-1.739.232-.849.5-1.429.812-1.74v-.232c0-.308.076-.655.232-1.044.152-.384.385-.58.695-.58h.465v.929c0 .312-.156.852-.465 1.624v.231a8.499 8.499 0 0 0-.348 1.508 9.002 9.002 0 0 1-.348 1.509c-.312.775-.504 1.508-.58 2.204a5.872 5.872 0 0 1-.58 1.972c-.312 1.24-.619 2.088-.928 2.552-.156.62-.312 1.16-.465 1.624a21.72 21.72 0 0 0-.463 1.624v.232a323.416 323.416 0 0 0-.812 3.016c-.076.312-.268.464-.58.464-.457-.155-.534-.774-.227-1.858m-2.551 4.176c-.152.464-.309.696-.465.696h-.232l-.23-.232c-.152-.152 0-1.276.463-3.364a737.24 737.24 0 0 1 1.508-6.611c.545-2.32 1.355-5.412 2.436-9.28a13.27 13.27 0 0 0 .697-2.32c.152-.771.383-1.544.695-2.32.152-.464.232-.888.232-1.275 0-.384.076-.812.232-1.276l.232-.231c0-.309.115-.696.348-1.16.23-.464.5-.696.811-.696.152-.152.385-.076.697.232.152.312.152.62 0 .928-.156.312-.232.544-.232.696a50.74 50.74 0 0 1-1.045 3.596c-.387 1.16-.811 2.36-1.275 3.596a43.575 43.575 0 0 0-.928 3.248l-1.393 5.568c-.152.156-.348.812-.58 1.972-.23 1.16-.5 2.36-.811 3.596-.617 2.629-1.004 4.173-1.16 4.637m-.812 4.523c-.076.08-.115.196-.115.349 0 .155-.076.231-.232.231h-.232c-.152 0-.232-.076-.232-.231-.463-.464-.463-.696 0-.696-.152-.152-.232-.308-.232-.464h.232v-.696l.465-.231c.312 0 .463.231.463.695.156.156.156.389 0 .696-.002.156-.037.272-.117.347m-.58 4.061c0 .312-.152.464-.465.464h-.23c-.309-.152-.385-.308-.232-.464v-.232c-.152 0-.152-.076 0-.231v-.464H430.782l.465.464c0 .155-.076.231-.232.231v.232zm-1.393-13.688v-.231c0-.152.08-.309.232-.464V134.586h.464c.311 0 .463.04.463.116 0 .08.08.116.232.116 0 .155-.035.271-.115.348a.487.487 0 0 0-.117.348v.464c-.152.312-.383.464-.695.464-.152 0-.309-.075-.465-.231v-.234zm-.928 7.192c0 .156-.076.232-.232.232-.15 0-.307-.076-.463-.232v-.463c0-.464.08-.772.232-.928v-.696c.311-.772.543-1.16.695-1.16.312 0 .465.156.465.464.154.156.078.696-.232 1.624-.308.619-.465 1.007-.465 1.159m1.856-11.368c.312-1.392.58-2.32.812-2.784s.504-.695.812-.695c.156 0 .312.08.463.231v.463c-.463 1.24-.695 2.477-.695 3.712 0 .464-.152.696-.463.696 0 .312-.232.464-.697.464-.152 0-.232-.036-.232-.116 0-.075-.074-.115-.23-.115 0-.465.08-1.004.23-1.624v-.232zm2.088-7.888c0-.309.041-.5.117-.58.08-.076.115-.192.115-.348v-.232c.156-.152.232-.308.232-.464 0-.464.156-.696.465-.696.154 0 .311.08.463.232h.232v.231c0 .312-.076.544-.232.696 0 .776-.232 1.472-.695 2.088h-.232c-.309 0-.465-.232-.465-.696v-.231zm1.392-5.336v-.232c.156-.152.156-.231 0-.231 0-.152.08-.232.232-.232v-.464l.232-.464c.311 0 .543.08.695.231h.232V118.113l-.232.231v.463c-.152.156-.385.232-.695.232-.152 0-.309-.076-.465-.232v-.23zm1.393-5.336c.312-.309.539-.464.695-.464.152 0 .232.155.232.464l.232.231c0 .156-.08.312-.232.464v.465c0 .155-.08.231-.232.231h-.232c-.307 0-.463-.152-.463-.464h-.232v-.232l.232-.464v-.231zm39.439 29c.152-.152.232-.309.232-.464.152-.152.309-.232.465-.232h.23c.309-.308.541-.464.697-.464l.23.231v.465c-.311.619-.775.928-1.391.928-.156 0-.312-.076-.465-.232v-.232zm3.944-3.016l.232.232c.152.156.152.231 0 .231v.232l-.463.464h-.232c-.312 0-.465-.076-.465-.231 0-.152.152-.385.465-.696l.463-.232zm4.525-3.364c.539-.385.963-.58 1.275-.58h.465v.464l-.232.231-.465.464c-.928.62-1.471.929-1.623.929-.156 0-.312-.076-.465-.232h-.232c0-.151.076-.308.232-.464.152-.152.5-.424 1.045-.812m2.9-1.74c0-.152.074-.232.23-.232 0-.151.076-.268.232-.348.152-.076.232-.192.232-.349.152 0 .268-.035.348-.115.076-.076.191-.116.348-.116l.465.231v.465c-.156 0-.312.08-.465.231-.156.156-.463.312-.928.464l-.232.232c0-.152-.08-.232-.23-.232v-.231zm3.944-3.017l.232.232c.152.156.152.312 0 .464 0 .156-.08.232-.232.232l-.465.231c-.311 0-.463-.076-.463-.231 0-.152.076-.269.232-.349.15-.076.23-.191.23-.348l.466-.231zm3.943-2.551h.465v.464l-.465.464c-.156 0-.232.08-.232.232h-.23l-.232-.232v-.231c-.156 0-.232-.036-.232-.116 0-.076.076-.116.232-.116-.001-.309.231-.465.694-.465m1.625-1.392c.307-.309.615-.464.928-.464l.463-.232.465.232c0 .155-.156.388-.465.695 0 .156-.08.232-.23.232-.156.156-.312.231-.465.231 0 .156-.08.232-.232.232l-.463-.464v-.462zm3.711-2.32c.152 0 .309-.116.465-.348.152-.232.309-.349.463-.349.309 0 .465.156.465.464v.232c-.156.156-.312.232-.465.232v.231H499.688l-.232-.231v-.231zm-47.443 77.952c1.932-4.176 3.828-8.816 5.684-13.92a380.975 380.975 0 0 0 5.336-15.776 543.735 543.735 0 0 0 4.641-15.544V156.857c.309-.615.5-1.195.58-1.739.076-.54.268-1.12.58-1.74a83.33 83.33 0 0 1 2.088-1.624 23.484 23.484 0 0 1 2.088-1.392l.463-.465c.152 0 .385-.151.697-.464 2.32-1.544 4.096-2.784 5.336-3.712l3.248-2.436a62.575 62.575 0 0 1 2.783-1.973c.928-.615 2.164-1.468 3.713-2.552l2.088-1.392c1.236-.772 2.279-1.508 3.131-2.204.85-.696 1.66-1.276 2.438-1.74 1.543-1.08 2.395-1.624 2.551-1.624.773-.771 1.352-1.392 1.74-1.855.385-.465.889-1.236 1.508-2.32.152-.152.232-.54.232-1.16l-.465-.464c0-.152.076-.309.232-.464V124.842c-.156 0-.232-.076-.232-.232l-.23-.231c-.156-.152-.232-.308-.232-.464l.232-.464c.463-.772.383-1.393-.232-1.856h-.465c-.156.156-.311.232-.463.232-.312.155-.58.312-.812.464-.232.156-.428.231-.58.231-1.703.776-3.172 1.509-4.408 2.204-1.24.696-2.707 1.624-4.408 2.784-1.703 1.16-3.867 2.708-6.496 4.64a1457.501 1457.501 0 0 0-10.439 7.772l-.695.696c-.156.155-.273.231-.348.231-.08 0-.197.08-.35.232-.156.156-.271.231-.348.231-.08 0-.195.08-.348.232.309-1.236.656-2.552 1.045-3.944.383-1.392.73-2.704 1.043-3.943.152-.616.309-1.16.465-1.624a8.3 8.3 0 0 1 .463-1.16c.465-1.7.965-3.284 1.508-4.756.541-1.469 1.045-2.82 1.508-4.061a21.819 21.819 0 0 0 1.625-5.104c.309-1.7.848-3.4 1.623-5.104.309-.928.85-1.932 1.625-3.016.771-1.08 1.312-2.008 1.623-2.784.773-1.544 1.277-2.588 1.508-3.132.232-.54.58-1.12 1.045-1.74.615-.616.965-1.08 1.043-1.392.076-.309.193-.849.35-1.624.15-.616.076-1.393-.232-2.32-.156-.152-.232-.308-.232-.464 0-.152-.08-.384-.232-.696-.156-.771-.428-1.392-.811-1.855a38.642 38.642 0 0 1-1.277-1.624 7.177 7.177 0 0 0-1.508-1.16c-.543-.309-1.432-.696-2.668-1.16-1.393-.308-2.477-.268-3.248.116-.775.388-1.473.66-2.088.812h-.232c-.463.156-.66.464-.58.929.076.464.037.852-.115 1.159v.232c-.312.312-.465.62-.465.928 0 .156-.154.389-.463.696-.621 1.548-1.008 2.708-1.16 3.479a54.073 54.073 0 0 0-1.275 3.248 51.8 51.8 0 0 0-1.045 3.248c0 .156-.039.272-.115.349-.08.08-.117.271-.117.58a193.685 193.685 0 0 0-3.828 11.252 476.097 476.097 0 0 1-3.596 11.252c-2.631 4.64-5.104 8.548-7.424 11.716-2.32 3.172-4.408 5.764-6.264 7.771-1.855 2.013-3.48 3.597-4.873 4.757-1.391 1.159-2.551 1.972-3.479 2.436-.312.156-1.24.388-2.785.696-1.547.312-2.471-.152-2.783-1.393-.152-.771.039-2.319.58-4.64.539-2.32 1.195-5.024 1.973-8.12.15-.616.424-1.74.811-3.364.385-1.624.812-3.052 1.277-4.292.307-.771.615-1.659.928-2.668.307-1.004.615-1.815.928-2.436v-.232l1.855-5.8c.309-.464.465-.888.465-1.275 0-.385.076-.812.23-1.276v-.928c.309-1.08.617-2.124.93-3.133a30.885 30.885 0 0 1 1.16-3.132c.307-.464.615-1.004.928-1.624.307-.616.615-1.16.928-1.624.463-.771.615-1.66.463-2.668-.156-1.004-.852-1.74-2.088-2.204-1.084-.464-1.82-.58-2.203-.348a2.439 2.439 0 0 1-1.275.348c-.621-.151-1.201-.151-1.74 0-.545.156-1.277.156-2.205 0-1.084 0-2.012.389-2.783 1.16-.771.776-1.16 1.24-1.16 1.393a232.772 232.772 0 0 0-4.641 13.456 455.773 455.773 0 0 0-3.943 13.455h.232c-.309.929-.541 1.973-.697 3.133-.152 1.16-.383 2.204-.695 3.132a12.07 12.07 0 0 0-.348 1.275 6.636 6.636 0 0 0-.117 1.276h-.23c-.309 2.32-.656 4.332-1.045 6.032-.385 1.704-.424 3.328-.115 4.872 0 .464.039 1.2.115 2.204a17.56 17.56 0 0 0 .465 2.899c.23.929.58 1.78 1.043 2.553.465.771 1.16 1.235 2.088 1.392.465.152.893.231 1.277.231.387 0 .734.076 1.043.232 1.549.616 2.709.928 3.48.928.312.152.619.192.928.116.312-.08.619-.116.928-.116h.695c.617 0 1.006-.08 1.16-.231.773-.156 1.777-.504 3.018-1.044 1.234-.544 2.703-1.433 4.406-2.668 2.629-1.7 5.182-4.137 7.656-7.309 2.473-3.168 4.561-6.067 6.266-8.699a224.444 224.444 0 0 1-2.785 10.439c-5.416 4.176-11.332 8.736-17.748 13.688a3860.945 3860.945 0 0 1-21.229 16.239c-7.111 5.412-12.836 10.4-17.168 14.964-4.328 4.561-7.691 8.7-10.092 12.412-2.395 3.712-3.904 7.076-4.523 10.093-.615 3.016-.771 5.684-.465 8.004.777 5.412 4.102 9.744 9.977 12.991 6.188.616 11.873 0 17.053-1.855 5.184-1.856 9.9-4.332 14.152-7.424 4.256-3.097 8.084-6.496 11.482-10.208a380.24 380.24 0 0 0 9.049-10.208c2.001-2.318 3.973-5.566 5.909-9.742M388.562 51.297v.232h-.232l-.232-.232c-.156-.152-.232-.308-.232-.464.152 0 .232-.036.232-.116 0-.076.076-.116.232-.116l.232.232c.15 0 .23.08.23.231v.232h-.23zm-1.161.464c.15 0 .23.08.23.232v.231c0 .156-.08.232-.23.232v.231h-.232c-.312 0-.465-.075-.465-.231 0-.152.037-.269.117-.349.076-.075.115-.191.115-.348h.465zm-.464 21.576c-.156.156-.312.232-.465.232h-.23c-.312-.152-.312-.385 0-.696v-.232h.23c0-.151.076-.231.232-.231h.232c0 .155.035.231.115.231.076 0 .117.08.117.232l-.232.231v.233zm43.847-14.616h-.463c-.156 0-.312-.076-.465-.231v-.232c.152-.152.232-.308.232-.464.152 0 .232-.036.232-.116 0-.076.076-.116.23-.116.152 0 .232.08.232.232V58.721zm-49.416 21.112c-.156.156-.312.231-.463.231l-.232-.231c0-.309.076-.54.232-.696v-.231h.463c.152 0 .232.08.232.231.309 0 .309.156 0 .464.001.156-.079.232-.232.232m45.473 50.112h.232v-.232h.463v.232l.232.231-.232.464c-.156.156-.311.232-.463.232-.156 0-.232-.076-.232-.232-.312 0-.312-.151 0-.464v-.231zm1.16-67.512h-.232c-.312-.151-.312-.384 0-.695v-.232h.232c0-.152.076-.232.232-.232.15 0 .23.08.23.232h.232c0 .312-.08.544-.232.696-.153.154-.31.231-.462.231m-6.264 10.44h-.232l-.232.231h-.463v-.695h.23v-.232l.232-.231c.309 0 .465.079.465.231.15 0 .23.04.23.116 0 .08-.08.116-.23.116v.464zm-2.32 67.512h.232v-.231c.15-.152.23-.152.23 0h.465v.464c0 .155-.08.312-.232.464-.156.156-.312.231-.463.231l-.232-.231v-.697zM388.562 71.48l-.232.232v.232h-.232c0 .155-.08.231-.232.231-.156-.152-.312-.231-.463-.231v-.464c.307-.308.539-.464.695-.464.152 0 .309.08.465.232v.232zm45.935-19.487v.464h-.232v.231c-.156.156-.312.232-.465.232-.154 0-.23-.076-.23-.232-.156 0-.232-.075-.232-.231.152-.464.463-.696.928-.696l.231.232zm-1.625 69.368c0-.616.232-.929.697-.929.15 0 .307.08.463.232v.464h-.232v.464h-.928v-.231zm-38.744-11.136c0-.151.076-.231.232-.231H395.054l.232.231v.464l-.232.232h-.23c-.465 0-.697-.152-.697-.464v-.232zm-7.887-60.552c0-.152.076-.232.23-.232l.232-.231c.465 0 .697.231.697.696v.231l-.232.232h-.465c-.156 0-.232-.076-.232-.232l-.23-.231v-.233zm44.08 76.792v.232l-.232.231c0 .156-.08.232-.232.232 0 .156-.08.231-.232.231-.311 0-.463-.151-.463-.464 0-.151.076-.308.232-.464 0-.308.15-.464.463-.464l.464.466zm-68.904-7.888h.231c0-.152.076-.232.231-.232.465 0 .697.08.697.232v.695l-.232.232c-.62 0-.928-.232-.928-.696v-.231zm31.783 29.928c0 .312-.232.464-.695.464h-.465V148.273c0-.151.076-.308.232-.464h.232l.232.232c.307 0 .463.08.463.231v.233zm-10.207-49.416c.307 0 .463.08.463.232 0 .155.076.231.232.231 0 .156-.039.232-.115.232-.08 0-.117.08-.117.231h-.463v.232h-.232l-.232-.232c0-.151-.08-.308-.232-.464v-.231l.465-.232h.231zm3.016-47.792c0 .156-.08.232-.232.232-.156 0-.232-.036-.232-.116 0-.076-.08-.116-.23-.116l-.232-.464c.152 0 .232-.076.232-.232v-.231h.23c.152-.152.232-.152.232 0h.232l.232.231.23.464c-.154.156-.31.232-.462.232m-12.297 51.736h.232l.232-.232h.463c.152.312.232.62.232.928l-.232.232h-.23v.231c-.465 0-.697-.308-.697-.928v-.231zm-18.559 22.04c0-.152.079-.309.231-.465l.231-.231c.156 0 .232.08.232.231h.464v.696l-.231.232c0 .155-.076.231-.232.231h-.232c-.308 0-.463-.151-.463-.464v-.23zm24.127-24.36v-.232h.697c0 .156.074.312.23.465v.464c-.156.155-.311.231-.463.231h-.232c-.465 0-.695-.231-.695-.695.15 0 .23-.076.23-.232h.233zm13.688-7.192h.232l.465.232v.696h-.232v.231h-.233c0 .156-.08.232-.232.232 0-.152-.08-.232-.23-.232-.156-.151-.232-.464-.232-.928.151-.151.307-.231.462-.231m-41.528 60.32h-.232v-.232h.232c-.152-.151-.152-.231 0-.231v-.464h.232c.619 0 .928.156.928.464l-.232.464c0 .312-.151.464-.463.464-.152-.151-.309-.231-.465-.231v-.234zm73.313-20.88l.463-.464v-.232c.152 0 .232-.036.232-.116 0-.075.076-.115.232-.115.152 0 .309.08.465.231v.232l-.465.464c0 .156-.08.231-.232.231v.465h-.463c-.156 0-.232-.152-.232-.465v-.231zm1.623-67.744l-.23.232c-.156 0-.232-.152-.232-.464v-.232c0-.152.035-.268.115-.348.076-.076.117-.192.117-.349.307-.616.615-.616.928 0l-.465.929-.233.232zm-6.959 10.44v.231h-.232c-.156 0-.232-.076-.232-.231-.156-.152-.08-.385.232-.696v-.232h.232v-.231c.152-.152.309-.232.463-.232.152 0 .232.08.232.232.152 0 .232.08.232.231 0 .156-.156.389-.465.696l-.462.232zm-1.855 67.28c.15 0 .23-.075.23-.231 0-.152.076-.232.232-.232 0-.151.076-.231.232-.231.152 0 .232.04.232.115 0 .08.076.116.23.116v.232c0 .312-.154.464-.463.464 0 .156-.041.271-.115.348-.08.08-.117.196-.117.349h-.232c0 .155-.08.231-.23.231-.156 0-.232-.231-.232-.695 0-.154.076-.31.233-.466m-32.713-90.249c0 .156-.08.232-.232.232-.312 0-.543-.076-.695-.232v-.464h.232v-.231l.23-.232c0-.152.076-.231.232-.231h.232c.309.155.465.388.465.695 0 .312-.156.463-.464.463m10.439 55.217h.232c.152 0 .232.08.232.231.152 0 .232.08.232.232l-.232.231v.464l-.232.232h-.465l-.23-.232c-.156 0-.232-.075-.232-.231 0-.309.076-.54.232-.696 0-.151.153-.231.463-.231m-10.439-32.248h-.232v.231l-.463-.464c0-.152.15-.384.463-.696 0-.151.076-.231.232-.231.309-.309.539-.384.695-.232l.232.232c0 .156-.232.464-.695.928l-.232.232zm-6.264 6.264c.309-.308.463-.54.463-.696h.232c0-.151.076-.231.232-.231.309 0 .465.08.465.231v.232c0 .156-.117.388-.35.696-.23.312-.504.464-.811.464l-.232-.232v-.464zm-17.864 38.744c.151 0 .308-.076.464-.232.152 0 .232.08.232.232.463 0 .539.156.231.464v.696c0 .155-.079.231-.231.231h-.465c-.312-.308-.463-.54-.463-.695 0-.152.075-.309.231-.465v-.231zm20.88-62.872l-.465.464-.463-.232-.232-.231v-.232l.232-.231c0-.152.076-.232.232-.232v-.231l.23-.232h.232c.309.156.465.388.465.696.001.309-.079.461-.231.461m3.015 40.368l.465-.464h.232c.463 0 .695.155.695.464.309.312.232.464-.232.464l-.232.231h-.23c-.156 0-.232.08-.232.232h-.465v-.232c-.313-.463-.313-.695-.001-.695m8.584 47.328v.464c-.156.155-.312.231-.463.231-.312 0-.465-.151-.465-.464v-.231l-.232-.232c.152-.152.152-.308 0-.464l.232-.232c.309-.151.615-.075.928.232.152 0 .232.156.232.464-.156 0-.232.08-.232.232m1.856-53.36c0-.152.152-.232.465-.232h.232c0 .156.076.312.232.465v.464h-.232v.231h-.465v.232l-.232.231h-.23v-.231h-.232c-.156-.152-.232-.384-.232-.696.307-.308.539-.464.694-.464m35.961 31.784c0-.309.232-.464.695-.464h.232l.232.231c0 .156-.041.272-.115.349-.08.079-.117.195-.117.348v.231h-.232l-.23.232c0 .156-.08.232-.232.232-.156 0-.389-.152-.697-.465v-.231l.464-.463zm-10.672-70.064l.465-.231c.15 0 .383.155.695.464l-.232.231v.465h-.232v.231l-.23.232h-.232c-.156 0-.232-.076-.232-.232h-.232c-.156-.152-.232-.308-.232-.464l.462-.696zm4.291 14.152c-.08.312-.195.464-.348.464l-.232.232h.232c0 .312-.156.464-.463.464l-.232-.232v-.231c0-.309.152-.732.463-1.276.309-.54.617-.812.93-.812.15 0 .23.08.23.232 0 .156-.08.232-.23.232a4.371 4.371 0 0 0-.35.927m8.236-12.76l-.463.695c0 .156-.041.232-.117.232-.08 0-.115.08-.115.232h-.232c-.463 0-.695-.076-.695-.232v-.232c0-.151.076-.308.232-.464.15-.151.23-.308.23-.464.617-.616.93-.616.93 0 .15.001.23.081.23.233m-15.08 6.728c0 .156-.08.232-.23.232v.464c-.156.156-.312.231-.465.231-.465-.151-.695-.384-.695-.695 0-.152.035-.269.115-.349.076-.075.115-.191.115-.348.309-.308.541-.464.697-.464.152 0 .307.08.463.231v.698zm-63.799 80.272c.155-.152.231-.309.231-.464v-.232h.696c0 .156.08.232.232.232.155 0 .155.079 0 .231v.696c0 .156-.076.231-.232.231l-.465.696c-.308 0-.463-.231-.463-.696v-.694zm-2.205 14.5c-.076.08-.115.271-.115.58-.309.464-.54.695-.696.695-.151 0-.231-.231-.231-.695l-.232-.232v-.232h.232v-.695c0-.152.08-.232.231-.232.312 0 .544.08.696.232l.232.231c0 .156-.037.272-.117.348m2.437-29.116c.312-.308.62-.152.929.464 0 .156-.076.232-.232.232 0 .155.08.231.232.231l-.232.232v.231c0 .156-.076.232-.232.232 0 .156-.076.231-.232.231-.463 0-.695-.151-.695-.464 0-.464.08-.771.232-.928-.002-.149.078-.305.23-.461m41.296-22.272c0-.151.152-.231.465-.231.307 0 .5.156.58.464.076.312.115.62.115.928 0 .312-.08.464-.232.464 0 .312-.156.464-.463.464-.156 0-.232-.151-.232-.464l-.232-.231v-.464c0-.464.076-.696.232-.696l-.233-.234zm2.783-15.776l-.463 1.855c-.156.156-.389.232-.695.232-.312 0-.545-.232-.697-.696 0-.151.152-.384.465-.696.462-.463.927-.695 1.39-.695m18.56 55.447v.232c0 .312-.232.696-.695 1.16-.312.312-.465.544-.465.696-.311.155-.543.231-.695.231-.156 0-.232-.076-.232-.231 0-.309.191-.732.58-1.276.385-.54.732-.812 1.045-.812h.462zm-35.031-66.119c-.156 0-.232-.076-.232-.232-.156-.308 0-.696.465-1.16l.928-.928h.232c.15 0 .23.08.23.232.152.155.117.428-.115.812-.232.388-.428.66-.58.812-.313.312-.621.464-.928.464m-5.336 22.736h.232v-.231h.463c0-.152.076-.232.232-.232.152 0 .232.08.232.232h.23c.152.155.232.464.232.928v.232l-.232.231c-.154.156-.311.232-.463.232v-.232l-.232.232h-.232c-.311 0-.463-.232-.463-.696v-.232c-.156 0-.232-.075-.232-.231l.233-.233zm41.527-23.432l-.695.928c0 .312-.156.464-.465.464-.156 0-.232-.076-.232-.231-.154-.152-.154-.464 0-.929.152-.151.35-.424.58-.812.232-.384.5-.58.812-.58.152 0 .232.08.232.232l.232.231-.464.697zm-25.287 35.96c0-.616.076-1.004.23-1.16h.93c.15 0 .307.232.463.696 0 .464-.08.775-.232.928-.156.156-.387.232-.695.232h-.465c-.154-.152-.23-.309-.23-.464v-.232zm31.551 20.648v.231l-.463 1.16c-.312.312-.465.544-.465.696h-.232l-.463.464c-.312 0-.465-.152-.465-.464 0-.309.193-.732.58-1.276.385-.54.732-.812 1.045-.812h.463zm-74.703 27.144c0-.156.039-.58.115-1.276.08-.695.349-1.044.812-1.044.156 0 .312.08.464.232v1.624c0 .308-.076.616-.231.928-.309.464-.541.696-.696.696-.308 0-.464-.389-.464-1.16m39.904-66.584c.463-.308.695-.384.695-.232.152.156.152.312 0 .464-.156.156-.58.545-1.275 1.16-.697.62-1.201.929-1.508.929-.156 0-.232-.036-.232-.116 0-.076-.08-.116-.232-.116 0-.152-.039-.232-.115-.232-.08 0-.117-.151-.117-.464 0-.308.232-.54.697-.695.463-.152.848-.232 1.16-.232.15-.002.462-.155.927-.466m-6.961-41.412c.309-.384.617-.58.928-.58.309 0 .541.156.697.464 0 .464-.08.776-.232.929-.312.464-.695.695-1.16.695v.464l-.232.232c0 .156-.08.232-.232.232-.156 0-.311-.076-.463-.232-.156 0-.232-.152-.232-.464v-.232l.232-.231.232-.232c-.001-.309.15-.657.462-1.045m36.657 3.364l-.232-.232c-.156 0-.232-.151-.232-.464.152-.152.309-.231.465-.231 0-.152.076-.232.232-.232.152 0 .232.08.232.232h.23l.232.231v.232h-.232v.464h-.23v.231h-.232v.464c0 .156-.117.505-.348 1.045-.232.544-.504.812-.812.812-.312 0-.545-.152-.695-.464v-.232c0-.151.115-.5.348-1.044.232-.54.5-.812.811-.812h.463zm-65.889 91.408c-.307 0-.463-.076-.463-.232-.152-.152-.232-.464-.232-.928 0-.309.04-.656.116-1.044.079-.385.272-.732.579-1.044.312-.309.621-.309.929 0 .155 0 .231.08.231.231 0 .156-.035.544-.115 1.16-.076.62-.192 1.008-.348 1.16-.308.465-.541.697-.697.697m30.625-92.568c.152-.152.5-.616 1.043-1.392.541-.772.965-1.312 1.277-1.624v-.232h.463v.464l-.463.464-1.393 2.553c-.312.464-.58.968-.812 1.508a9.419 9.419 0 0 1-.811 1.508c-.312.928-.621 1.624-.93 2.088v.232c-.311.619-.619.928-.928.928-.156 0-.232-.232-.232-.696-.154-.308-.08-.771.232-1.392.309-.616.617-1.08.928-1.393.466-1.236 1.005-2.24 1.626-3.016m30.855 12.063c0 .156-.039.272-.115.349-.08.08-.117.196-.117.348l-1.391 3.48v.231c0 .156-.041.232-.117.232-.08 0-.115.08-.115.231 0 .776-.156 1.316-.465 1.624 0 .156-.039.312-.115.464-.08.156-.115.312-.115.465 0 .155-.08.312-.232.464-.156 0-.273.04-.348.116-.08.08-.197.115-.35.115-.311 0-.463-.151-.463-.464-.156-.151-.156-.464 0-.928 0-.308.076-.58.232-.812.15-.231.307-.5.463-.812l.465-.928.695-1.856.465-1.392c.307-.772.58-1.429.811-1.973.232-.54.5-.964.812-1.275v-.232h.232v-.231l.232-.232v-.464c0-.152.035-.232.115-.232.076 0 .115-.075.115-.231h.232v-.232c0-.151.076-.308.232-.464h.232l-.232-.231v-.232c0-.152.076-.232.232-.232l.232-.231.463.231.232.232v.696h-.232v.464h-.232v.464h-.23v.232l-.232.231v.232h-.465c.152 0 .232.155.232.464 0 .156-.08.231-.232.231 0 .156-.08.232-.232.232.002.777-.229 1.393-.694 1.856m-33.408-16.007c.309-.308.58-.731.812-1.275.232-.54.5-1.044.812-1.509a6.731 6.731 0 0 0 1.74-1.275l1.508-1.508.23-.232a8.49 8.49 0 0 1 .93-.812 5.84 5.84 0 0 1 .928-.58h.463c.309 0 .465.08.465.231 0 .156-.08.312-.232.464l-1.393 1.393-.23.231c-.621.465-1.24 1.16-1.857 2.088l-1.623 1.856c0 .156-.117.272-.348.348a1.49 1.49 0 0 0-.58.349l-.465.464c0 .156-.08.231-.232.231v.232a194.33 194.33 0 0 1-1.391 2.204c-.156.231-.312.348-.465.348h-.232v-.231c-.156-.152-.195-.385-.115-.696.076-.308.424-.928 1.043-1.856l.232-.465zm-24.127 79.576v-.231h-.232c-.309-.152-.309-.385 0-.696 0-.152.08-.309.232-.464v-.232l.231-.231c0-.152.08-.232.231-.232 0-.152.041-.268.117-.348.079-.076.115-.192.115-.349 0-.151.04-.231.116-.231.08 0 .116-.076.116-.232 0-.308.035-.58.115-.812.076-.232.116-.5.116-.812v-.231c0-.152.076-.309.232-.465.772-1.699 1.235-2.668 1.392-2.899.152-.232.309-.348.465-.348.307.155.424.428.348.812-.08.388-.58 1.896-1.508 4.524v.464c-.156.155-.232.312-.232.464 0 .156-.08.388-.232.696-.312.928-.464 1.472-.464 1.624v.231l-.696 2.32a.983.983 0 0 1-.115.464c-.076.156-.116.388-.116.696v.231l-.464 1.393c0 .155-.076.231-.232.231 0 .312-.076.66-.232 1.044-.151.389-.151.66 0 .812-.151.775-.539 1.16-1.159 1.16-.308 0-.54-.152-.696-.465v-.231c0-.152.08-.309.232-.464-.152-.616-.036-1.393.348-2.32.389-.928.736-1.624 1.044-2.088v-.232c-.151 0-.075-.151.231-.464 0-.308.08-.54.232-.696 0-.309.157-.773.465-1.393m38.047-2.552l-.463 2.784c0 .775-.156 1.936-.465 3.479-.156 0-.232.232-.232.696-.311 3.248-.543 5.22-.695 5.916-.156.696-.389 1.044-.695 1.044-.156 0-.232-.076-.232-.232v-.464a4.294 4.294 0 0 1-.232-2.436c.152-.849.309-1.66.465-2.437 0-.308.035-.58.115-.812.076-.232.115-.424.115-.58.309-2.472.773-5.18 1.393-8.12 0-.152.037-.308.117-.464a1.06 1.06 0 0 0 .115-.464c0-.309.152-1.08.463-2.32v-.464c0-.616.152-1.08.465-1.392.152-.152.385-.232.695-.232h.465c.152.156.232.388.232.696a115.306 115.306 0 0 1-1.626 5.802m-47.096 23.896c0 1.084-.308 1.624-.928 1.624h-.232c-.308 0-.463-.076-.463-.231-.309-.309-.309-.696 0-1.16v-.232a3.54 3.54 0 0 0 .579-1.508c.08-.54.196-1.044.349-1.508.156-.464.271-.964.348-1.508.08-.54.271-1.044.58-1.508l1.855-7.192.928-3.48c.312-.928.465-1.468.465-1.623.156 0 .428-.616.812-1.856.387-1.236.735-1.856 1.043-1.856h.232l.232.232a.986.986 0 0 1-.117.464 1.073 1.073 0 0 0-.115.464l-.928 3.48c-.309.62-.465 1.084-.465 1.392l-.463 1.624c-.309 1.24-.617 2.168-.929 2.784a22.338 22.338 0 0 0-1.044 3.712 60.93 60.93 0 0 1-.812 3.712 34.04 34.04 0 0 0-.348 2.088 5.605 5.605 0 0 1-.58 1.856v.23zm57.305-72.616V79.6c0-.151.076-.384.232-.695.15-.152.23-.309.23-.465 0-.151.076-.308.232-.464l.928-3.016c.309-.308.465-.696.465-1.16.309-1.544.848-3.132 1.623-4.756a265.773 265.773 0 0 1 2.32-4.756l.928-1.624c.152-.152.232-.309.232-.464l1.855-3.712.232-.232c1.08-2.164 1.74-3.4 1.973-3.712.232-.308.424-.464.58-.464h.232c.307.156.348.428.115.812-.232.389-1.045 1.896-2.436 4.524-.621 1.24-.928 1.936-.928 2.088l-1.16 2.32c-.312.62-.58 1.239-.812 1.855-.232.62-.504 1.24-.812 1.856 0 .155-.156.544-.463 1.16 0 .155-.041.312-.117.464-.08.156-.115.312-.115.464l-.697 1.16-.695.928-1.393 3.712c-.154 1.084-.543 2.168-1.16 3.248l-.695 1.624-.232.232h-.462zm-13.687 42.224v.232c-.156.155-.232.464-.232.928s-.08.852-.232 1.16v.928l-.695 3.712c0 .312-.041.62-.117.928a3.71 3.71 0 0 0-.115.929l-.465 2.552c.152.156.076.62-.232 1.392-.311.312-.463.62-.463.928a32.554 32.554 0 0 0-.348 2.9 36.602 36.602 0 0 0-.117 2.9v.231c-.156 1.393-.271 2.244-.348 2.552-.08.312-.195.465-.348.465-.312 0-.465-.309-.465-.929v-2.319c.152-.464.232-1.08.232-1.856 0-1.236.076-2.164.232-2.784v-.928c0-1.236.076-2.088.232-2.552 0-1.08.152-2.24.463-3.48 0-.308.037-.616.117-.928.076-.308.115-.616.115-.928l.232-.464c0-.465.076-.772.232-.929 0-.615.15-1.235.463-1.855v-.928c.152-.151.309-.151.465 0v-1.392c-.156 0-.232-.152-.232-.464v-.232l.232-.231v-.232l.232-.231.23.231V120.667h.232v-.232c0-.151.076-.231.232-.231 0-.929.232-1.856.695-2.784v-.464l.465-.929.463-.464.232.232h.232l.232.231-.232.232v.696c-.156.155-.232.388-.232.695 0 .156-.08.312-.232.465v.464c-.311.62-.463 1.16-.463 1.624-.156.155-.232.464-.232.928 0 .156-.039.312-.115.464-.08.156-.117.388-.117.696l-.23.231v.232zm39.671-78.416c1.08.464 1.428 1.548 1.043 3.248-.389 1.704-1.316 3.944-2.783 6.728-1.473 2.784-3.445 5.996-5.916 9.628-2.477 3.637-5.184 7.62-8.121 11.948 2.629-7.731 5.18-14.5 7.656-20.3 2.473-5.8 4.408-9.316 5.801-10.556.928-.772 1.699-1.004 2.32-.696m-36.656 4.408c.463 0 .771.08.928.231 1.08 1.084 1.043 2.94-.117 5.568-1.158 2.632-2.748 5.416-4.756 8.352a137.865 137.865 0 0 1-6.379 8.584 469.445 469.445 0 0 0-4.988 6.265c.928-2.32 1.855-4.872 2.783-7.656.93-2.784 1.934-5.452 3.018-8.004a58.366 58.366 0 0 1 3.711-7.308c1.393-2.32 2.936-4.177 4.641-5.568.306-.308.694-.464 1.159-.464m-28.304 70.992l1.624-5.336c.308 1.548.349 3.096.116 4.64-.232 1.548-.348 2.939-.348 4.176 0 3.404-.312 8.044-.928 13.92a151.628 151.628 0 0 1-2.9 17.517c-1.316 5.8-3.057 10.939-5.221 15.428-2.164 4.483-4.791 7.111-7.888 7.888a433.686 433.686 0 0 1 6.496-28.768 365.21 365.21 0 0 1 8.584-28.072l.465-1.393zm34.22 3.016c.23-.928.58-2.008 1.043-3.248 0-.308.037-.5.117-.58.076-.076.115-.268.115-.58 0-.152.076-.231.232-.231l.463-1.856v-.232l7.889-24.592c2.783-3.863 5.604-7.848 8.469-11.947a339.393 339.393 0 0 0 7.771-11.601 256.006 256.006 0 0 0 6.148-10.092c1.775-3.092 3.051-5.645 3.828-7.656.307-.928.463-1.544.463-1.855.309-.929.617-2.204.928-3.828.309-1.624.385-3.132.232-4.524-.156-1.08-.504-1.624-1.043-1.624-.545 0-1.201-.151-1.973-.464-.465-.308-1.008-.464-1.625-.464-1.547-.772-3.443-.732-5.684.116-2.244.852-4.795 2.899-7.656 6.147-2.863 3.248-5.916 8.004-9.164 14.269-3.248 6.264-6.65 14.348-10.207 24.244-.312.312-.545.852-.695 1.624-1.084.619-2.09 1.275-3.018 1.972s-1.547 1.2-1.855 1.508c-.312.312-.928.812-1.855 1.508a94.212 94.212 0 0 1-3.248 2.32c-1.24.852-2.477 1.704-3.713 2.552a85.937 85.937 0 0 0-2.783 1.972c-1.24.776-2.4 1.356-3.48 1.74a9.96 9.96 0 0 0-3.016 1.74 5.69 5.69 0 0 1-2.436.812c-.854.079-1.664.195-2.437.348.308-1.236.499-2.048.579-2.437.076-.384.117-.731.117-1.044 0-.308.035-.695.115-1.16.076-.464.348-1.392.812-2.783a362.43 362.43 0 0 1 14.5-18.212c5.18-6.108 9.316-12.564 12.412-19.372l.695-1.856c.617-1.7 1.004-3.364 1.16-4.988.152-1.624-.775-3.283-2.783-4.987-.777-.464-1.24-.656-1.393-.58-.156.08-.465-.036-.928-.349-.465-.151-.736-.268-.812-.348-.08-.076-.271-.116-.58-.116h-.232c-1.238-.308-2.318-.384-3.248-.231-3.711.312-7.074 2.128-10.092 5.452-3.016 3.327-5.723 7.191-8.119 11.6a94.236 94.236 0 0 0-6.032 13.456c-1.624 4.563-2.899 8.084-3.828 10.556a276.78 276.78 0 0 0-4.292 11.948 1095.66 1095.66 0 0 1-4.061 11.948l-2.088 7.191-.695 2.088a411.695 411.695 0 0 1-5.221 16.009 310.287 310.287 0 0 0-5.336 16.936 175.491 175.491 0 0 0-3.943 17.052c-1.004 5.645-1.275 11.021-.812 16.124.156 3.4.853 5.801 2.088 7.192 1.24 1.392 2.709 2.048 4.408 1.972 1.704-.08 3.596-.735 5.684-1.972 2.089-1.24 4.061-2.864 5.916-4.872 6.341-6.344 10.633-13.536 12.877-21.576 2.24-8.04 3.672-16.392 4.291-25.056.152-2.32.232-4.792.232-7.424v-7.772c0-2.552.037-4.948.117-7.191.074-2.24.268-4.137.578-5.685.309-1.08 1.16-2.124 2.553-3.132 1.393-1.004 3.092-2.048 5.104-3.132a172.167 172.167 0 0 1 6.613-3.364 112.386 112.386 0 0 0 6.844-3.596c-.312.775-.58 1.548-.812 2.319a13.002 13.002 0 0 1-.812 2.089l-3.943 11.832c-.156 0-.232.155-.232.464a437.791 437.791 0 0 1-1.855 6.728c-1.24 4.332-2.244 8.353-3.016 12.064a49.264 49.264 0 0 0-.697 8.12 36.51 36.51 0 0 0 .117 6.495c.232 2.168.732 3.713 1.508 4.641 1.08 1.548 2.24 2.824 3.48 3.828a67.486 67.486 0 0 0 3.479 2.668 43.055 43.055 0 0 0 3.713 2.088c1.855.464 3.633.696 5.336.696 1.545 0 3.209-.309 4.988-.929 1.775-.616 3.516-1.775 5.221-3.479 1.543-1.544 3.322-3.557 5.336-6.032a226.658 226.658 0 0 0 6.031-7.772 220.97 220.97 0 0 0 5.684-8.004c1.775-2.628 3.209-4.872 4.293-6.728.615-1.236 1.004-1.933 1.16-2.088 0-.152.074-.309.23-.464 0-.152.152-.54.465-1.16 0-.152.035-.309.115-.464.076-.152.117-.385.117-.696v-.232h.23v-.928c.152-.464.117-.731-.115-.812-.232-.076-.428-.036-.58.115.152-.308.152-.848 0-1.624v-.464c-.312-.464-.775-.231-1.393.696.309-.464.58-.928.812-1.392a8.037 8.037 0 0 0 .58-1.624c0-.929-.312-1.393-.928-1.393l-.928.464c-.621.62-.928 1.009-.928 1.16-.156.156-.156.232 0 .232-1.24 2.168-3.248 5.376-6.033 9.628a254.57 254.57 0 0 1-8.932 12.76c-3.172 4.256-6.229 8.004-9.164 11.252-2.939 3.248-5.184 4.872-6.729 4.872-1.703 0-2.863-1.08-3.479-3.248-.621-2.164-.928-4.6-.928-7.308 0-2.704.15-5.296.463-7.772.309-2.472.541-4.096.695-4.872 0-.308.076-.771.232-1.392.152-.464.309-1.16.465-2.088.152-.929.463-2.088.928-3.48.312-.773.584-1.625.816-2.553m-68.554-13.689c-.312 2.32-.928 4.721-1.855 7.192-.776 2.168-1.937 4.488-3.48 6.96-1.548 2.476-3.637 4.796-6.264 6.96a52.554 52.554 0 0 1-5.452 3.016c-1.937.929-3.288 1.549-4.06 1.856-.465.156-1.16.232-2.088.232 1.235-4.021 2.703-7.692 4.407-11.021 1.7-3.324 3.479-6.3 5.336-8.932 2.784-4.176 5.372-7.424 7.772-9.744 2.396-2.32 3.828-3.48 4.291-3.48.929 0 1.393 1.084 1.393 3.248v3.713zm-28.188 13.457c.08-.308.195-.464.348-.464.312-.771.775-1.004 1.393-.695l.231.231c0 .312-.116.736-.349 1.276-.231.544-.58.812-1.043.812h-.232c-.152-.151-.232-.308-.232-.464-.153-.153-.192-.384-.116-.696m.348 2.784c0 .156-.076.232-.232.232v.231l-.231.464h-.232c-.308 0-.464-.075-.464-.231 0-.152-.076-.232-.232-.232 0-.308.156-.615.465-.928 0-.152.08-.308.231-.464h.232c.155 0 .231.08.231.231.156 0 .232.08.232.232.156.156.156.232 0 .232v.233zm-.928 2.32v.231c0 .156-.076.232-.232.232h-.463c-.308 0-.464-.076-.464-.232v-.231c0-.308.08-.464.232-.464.155-.152.387-.152.695 0h.232v.464zm-.696 4.176v.463c-.151 0-.231.04-.231.116 0 .08-.076.116-.232.116-.465-.152-.696-.384-.696-.696v-.231l-.231-.232c-.152 0-.232-.076-.232-.232V130.411h.232c0-.152.08-.232.231-.232v.232c.464 0 .696.155.696.464 0 .156-.076.231-.232.231.156.156.312.232.465.232l.231.232v.231zm-.697 1.624h-.232v.463l-.231.232h-.928c-.152-.152-.231-.309-.231-.464v-.927l.231-.231h1.159c0 .156.041.231.117.231.08 0 .115.08.115.232v.464zm5.336-7.888c-.156 0-.232-.076-.232-.232 0-.308.117-.771.349-1.392.231-.616.54-1.276.929-1.973.383-.695.731-1.312 1.043-1.855.309-.54.541-.888.696-1.044.616-1.236 1.196-2.24 1.74-3.017a38.716 38.716 0 0 0 1.508-2.319l.231-.232c.772-1.235 1.353-2.008 1.74-2.319.385-.309.656-.465.812-.465h.232c.151.156.231.312.231.465 0 .155-.08.231-.231.231-.156.156-.504.696-1.045 1.624a45.328 45.328 0 0 1-1.855 2.9 44.538 44.538 0 0 0-1.855 2.899c-.545.929-.893 1.548-1.045 1.856l-.464.928c-1.084 2.784-1.937 4.176-2.552 4.176l-.232-.231zm11.137-16.24c0 .156-.08.312-.232.464l-.232.232c-.156 0-.231.08-.231.231h-.231c-.156 0-.389-.076-.697-.231v-.464c.309-.309.541-.465.697-.465l.231-.231.464.231.231.233zm1.623-1.392v.231h-.231l-.231.232h-.232l-.465-.464v-.232c0-.308.152-.464.465-.464.152 0 .309.08.464.231.151 0 .231.08.231.232v.234zm-13.455 10.672v-.232c0-.152.076-.231.231-.231v-.232c.464-.772.964-1.7 1.509-2.784a41.715 41.715 0 0 1 1.508-2.784l.231-.231a22.318 22.318 0 0 1 2.552-3.712 4.552 4.552 0 0 1 2.088-2.088c.152-.152.269-.232.349-.232.075 0 .192-.076.348-.231.308-.616 1.005-1.353 2.089-2.204 1.079-.849 1.699-1.276 1.855-1.276.309-.308.656-.58 1.044-.812.384-.231.731-.348 1.044-.348.152 0 .232.08.232.232l-.232.695c-.312.156-.544.312-.695.465-.156.155-.389.312-.697.464-.619.464-1.123.892-1.508 1.275l-1.275 1.276-1.856 1.855c-.155.156-.231.272-.231.349 0 .08-.08.196-.232.348-.62.776-1.084 1.316-1.393 1.624l-.463.928a7.434 7.434 0 0 0-.928 1.16 7.735 7.735 0 0 1-.929 1.16v.464a3.054 3.054 0 0 1-1.392 1.393c-.465.775-.776 1.239-.928 1.392l.231.232h-.231v.231c-.156 0-.232.08-.232.232 0 .155-.08.312-.232.464-.156.156-.232.312-.232.464-.155.156-.231.272-.231.348 0 .08-.08.196-.231.349-.156.155-.232.271-.232.348 0 .08-.08.196-.232.348v.232c-.312.156-.543.232-.695.232h-.232v-.696l.228-.467zm25.056 32.48c.151-.151.5-.384 1.044-.695.54-.309.964-.465 1.275-.465h.232v.465c-.156.312-.464.619-.928.928-.464.312-.852.464-1.16.464-.156 0-.232-.076-.232-.232h-.231v-.465zm4.407-3.016l.465-.232h.464v.464c-.312.62-.776.929-1.392.929h-.232V148.506c.308-.309.54-.465.695-.465m2.32-2.088h.464c0 .155.076.231.231.231 0 .312-.08.464-.231.464 0 .312-.232.465-.696.465-.156 0-.231-.076-.231-.232-.156-.152-.08-.384.231-.696.152 0 .232-.077.232-.232m3.017-2.552l.928-.929c.464-.464.849-.695 1.16-.695h.231c0 .155.037.231.117.231.075 0 .115.08.115.232-.156.312-.504.66-1.044 1.044-.544.388-.968.58-1.276.58h-.231v-.463zm3.712-3.48l.232-.232.463-.231h.465v.464l-.58.58a1.119 1.119 0 0 1-.812.348c-.156 0-.232-.076-.232-.231 0-.152.076-.309.232-.464l.232-.234zm2.32-2.088v-.232h.231c.308 0 .464.08.464.232v.231c-.156.156-.232.312-.232.465-.155.155-.312.231-.463.231l-.465-.231c0-.309.076-.54.232-.696h.233zm3.016-3.016c.464-.152.695-.152.695 0v.464l-.231.231-.231.232h-.232l-.232-.232c-.156-.151-.156-.308 0-.464-.002-.152.074-.231.231-.231m2.088-2.32c.464-.152.771-.152.928 0 0 .312-.08.544-.231.695v.232c-.156 0-.232.08-.232.232h-.231c0 .155-.08.231-.232.231-.312 0-.464-.151-.464-.464l-.231-.232.693-.694zm2.552-2.32c0-.308.151-.464.463-.464.152 0 .309.08.465.232v.231l-.232.232v.231c-.156 0-.232.08-.232.232h-.462c-.156-.152-.232-.309-.232-.464l.23-.23zm-44.312-24.824c-4.792 6.032-8.66 12.528-11.6 19.488a78.987 78.987 0 0 0-1.973 5.22 61.139 61.139 0 0 0-1.275 4.292c-1.701 5.416-2.588 9.477-2.668 12.181-.076 2.708.428 4.912 1.508 6.611.775 1.084 1.588 1.973 2.436 2.668.852.696 1.664 1.356 2.436 1.973 1.856 1.239 3.597 2.012 5.221 2.319 1.624.312 2.744.54 3.363.696h2.088c1.393-.156 3.597-.384 6.613-.696 3.016-.308 5.295-.771 6.844-1.392 2.936-1.08 5.875-2.552 8.815-4.408a96.509 96.509 0 0 0 8.236-5.8c2.552-2.008 4.832-3.98 6.844-5.916 2.009-1.932 3.632-3.596 4.872-4.988a45.219 45.219 0 0 0 1.973-2.088c.539-.616.887-1.004 1.043-1.16v-.231l.928-.929c.309-.615.465-1.004.465-1.159l.232-.232v-.231c.151-.152.231-.269.231-.349 0-.076.076-.191.231-.348.152-.464.076-.696-.231-.696-.155 0-.388.08-.696.232.309-.464.465-.732.465-.812 0-.076.076-.5.231-1.275v-.232c-.312-.464-.853-.308-1.624.464.928-.928 1.624-1.855 2.088-2.784.152-.928-.08-1.468-.695-1.624l-.929.464-.928.929-.231.231a22.506 22.506 0 0 0-1.625 1.856 27.904 27.904 0 0 1-2.088 2.32c0-.152-.695.619-2.088 2.319-1.704 1.856-4.216 4.408-7.54 7.656-3.327 3.248-7.388 6.496-12.18 9.744-3.56 2.32-6.304 3.676-8.236 4.06-1.937.389-3.521.66-4.756.812-.155 0-.464.04-.929.116a9.827 9.827 0 0 1-1.623.115h-2.553c-1.547 0-2.707-.54-3.479-1.624-.929-1.08-1.392-2.472-1.392-4.176a5.809 5.809 0 0 1 0-2.32v-1.391c0-.152.076-.384.231-.696 1.236-.308 2.937-.888 5.104-1.739 2.164-.849 4.56-2.049 7.191-3.597 2.629-1.544 5.336-3.556 8.12-6.032 2.784-2.472 5.412-5.567 7.888-9.279a30.588 30.588 0 0 0 1.856-3.248 81.08 81.08 0 0 0 1.508-3.828c.54-1.468.964-3.208 1.276-5.22.308-2.009.232-3.944-.232-5.8v-.465a186.72 186.72 0 0 0-1.044-3.943c-.388-1.393-.892-2.628-1.508-3.712-.155-.152-.231-.269-.231-.349 0-.076-.08-.191-.232-.348-.775-.928-1.624-1.624-2.553-2.088a21.479 21.479 0 0 0-2.783-1.16c-1.084-.308-2.244-.384-3.48-.232-6.496 1.855-12.143 5.799-16.935 11.831m-30.391 18.328c.308.156.463.464.463.928 0 .465-.231.696-.695.696h-.232c-.156 0-.388-.151-.695-.464 0-.464.308-.848.928-1.16h.231zm10.672-14.152c-.156.312-.232.695-.232 1.159 0 .465-.156 1.16-.464 2.089v.231c0 .464-.156.853-.464 1.16 0 .312-.156.464-.465.464h-.231v.232h.231l-.231.231v.463c-.155.156-.312.232-.464.232 0 .156-.156.388-.465.696v.231h-.231c-.155.312-.312.62-.464.928-.156.312-.312.544-.464.696l-.231.232-.465.464v.463h-.464c0 .156-.08.232-.231.232l-.232-.232c-.156 0-.232-.076-.232-.232v-.231c0-.152.076-.232.232-.232v-.231h.232c0-.464.151-.696.463-.696v-.232l.232-.231.232-.232c.308-.308.464-.54.464-.695 0-.152.075-.309.231-.465 0-.151.076-.231.232-.231 0-.152.036-.269.116-.348.075-.076.116-.192.116-.349-.156 0-.232-.036-.232-.116 0-.075.076-.115.232-.115h-.232l.232-.232v-.231h.231c.152-.152.384-.5.696-1.045.309-.539.615-1.892.928-4.06v-.232c.152-.615.152-1.312 0-2.088-.156-.308-.232-.812-.232-1.508s.076-1.196.232-1.508l.232-.232.232.232c.615.156.928 1.548.928 4.176v1.393zm-5.568 10.904c-.156.776-.389 1.16-.695 1.16-.621-.152-.929-.54-.929-1.16l.464-.464.465-.231c.151 0 .383.155.695.464v.231zm-2.088-3.48v-.232c.152 0 .232-.076.232-.231h.462c.152 0 .232.08.232.231h.232V117.416H283.931c-.156 0-.231-.076-.231-.232l-.232-.231zm0-4.641c0-.308.076-.54.232-.695h.927l.232.231c0 .156-.041.312-.117.464-.08.156-.115.312-.115.465-.312.464-.62.695-.928.695h-.232c-.156-.151-.232-.308-.232-.464 0-.307.077-.539.233-.696m-.233 10.673h-.232v.231h-.231c-.155 0-.231-.152-.231-.464h-.232v-.464c0-.152.076-.232.232-.232h.463c0 .156.076.312.232.464.152 0 .232.08.232.232l-.233.233zm1.857-8.12l.464.231c.152.156.232.389.232.696-.156.156-.312.231-.465.231 0 .156-.08.232-.231.232l-.231-.232c-.156 0-.312-.075-.465-.231v-.232h.232v-.463l.232-.231h.232zm-.929-6.032v-1.624h-.231v-.232c0-.308-.08-.54-.231-.695v-.232l.463-.464c.617 0 1.004.928 1.16 2.784 0 .155.037.271.116.348.076.08.116.196.116.348V109.994c0 .155-.156.231-.464.231 0 .776-.156 1.16-.464 1.16h-.232c-.156-.152-.232-.54-.232-1.16v-1.392zm1.393 5.8h-.232v-.464c.152-.308.232-.5.232-.58 0-.076.076-.268.232-.58.151-.616.308-1.16.463-1.624.152-.464.309-1.004.465-1.624.152-.464.191-1.004.115-1.624-.08-.616-.115-1.16-.115-1.624v-.231c-.156 0-.232-.152-.232-.464-.312-.309-.464-.616-.464-.929 0-.464.151-.848.464-1.16 0-.151.152-.231.465-.231h.231v.231l.231.464c.465 1.085.617 2.089.465 3.017v.928c0 1.084-.08 1.937-.232 2.552.152.62 0 1.393-.464 2.32s-.929 1.472-1.392 1.624h-.232zm-3.248 9.28H281.613c-.312 0-.465-.076-.465-.232v-.463l.232-.231h.232v-.232h.231l.231.232.232.231v.695zm-6.264-21.809v.232c-.156.312-.428.544-.812.696-.388.155-.66.231-.812.231l-.231-.231c0-.309.076-.464.231-.464h.465l.464-.465c0-.615.231-.695.696-.231v.232zm-2.784 2.088h-.231v.232h-.232l-.465-.232v-.464c.309-.308.617-.464.929-.464h.231c.152.312.152.544 0 .696l-.232.232zm-1.392.929l-.232.231c0 .156-.08.232-.232.232h-.232l-.231-.232v-.464l.231-.231c.152-.152.385-.076.697.231v.233zm-3.944 3.48c-.156-.151-.232-.308-.232-.464 0-.151.076-.231.232-.231 0-.309.075-.54.231-.696l.465-.464.463-.232c.309 0 .465.156.465.464 0 .312-.156.66-.465 1.044-.312.389-.619.58-.928.58h-.231zm-.464 1.16c-.156 0-.232.08-.232.232l-.464.231c-.156 0-.231-.076-.231-.231-.156 0-.232-.152-.232-.464.308-.309.615-.465.928-.465h.232c.152.156.152.312 0 .465v.232zm-1.625 1.856h-.231l-.231-.232c-.156-.152-.156-.308 0-.464l.231-.232h.464c.152.312.152.544 0 .696l-.233.232zm-1.391 1.856c0 .156-.156.232-.465.232h-.232c-.155-.152-.155-.232 0-.232v-.463l.232-.231c.152 0 .232.04.232.115 0 .08.076.116.232.116.151.156.151.232 0 .232v.231zm-1.625 2.088c-.156 0-.312-.075-.464-.231v-.463l.231-.232v-.231h.464c.308 0 .464.079.464.231v.696c-.155.154-.386.23-.695.23m-.695 1.624l-.232.464h-.463l-.231-.231v-.464l.231-.232.231-.231.232.231h.232v.463zm-15.776 37.352v1.624c.156.312.196.544.116.695-.076.156-.116.389-.116.696-.152.156-.232.388-.232.696.156.312.232 1.16.232 2.552v.928c0 .309-.076.54-.232.696h-.232c-.152 0-.232-.08-.232-.232-.152-.155-.268-.428-.348-.812a5.505 5.505 0 0 1-.116-1.044V159.409c-.152-.616-.232-1.7-.232-3.248v-.464a7.094 7.094 0 0 0 .232-1.74c0-.54.08-1.12.232-1.74v-1.391c0-.929.08-1.624.232-2.088.156-.465.388-.696.696-.696.156 0 .232.08.232.231.156.156.232.505.232 1.044 0 .545-.076.969-.232 1.276-.464 1.084-.54 2.4-.232 3.944m-1.856 5.336H243.796v.231h-.232v.232c0 .156-.232.232-.696.232h-.464v-.464c0-.151.08-.308.232-.464h.696v-.463c.156-.152.388-.231.696-.231h.232l.232.464v.463zm-2.088-2.088c.156-.152.312-.232.464-.232l-.232-.231v-1.159c-.152-.309-.152-.696 0-1.16V153.843c0-1.544.08-2.704.232-3.479v-.232c.156-.308.232-.928.232-1.856v-.928c-.152-.308-.152-.771 0-1.392.156-.616.312-1.08.464-1.393h.232v-.464h.232c.156 0 .388.156.696.464l.232.232c.156.312.156.892 0 1.74-.152.852-.384 1.355-.696 1.508 0 .156-.036.348-.116.58a2.61 2.61 0 0 0-.116.812v1.857c-.152 0-.232.312-.232.928h.232V152.915h-.232v1.856c0 .156.08.232.232.232 0 .156-.076.312-.232.464v.232c-.152.155-.232.271-.232.348 0 .08-.076.196-.232.348h.464l.464.232v.926c-.152.156-.384.232-.696.232V158.48l-.232.232-.232.232h-.464c0-.152-.076-.232-.232-.232v-.927zm1.624-15.312l.232-.231c.156-.152.388-.152.696 0l.232.231V143.168l-.232.232h-.232v.231l-.464-.231c-.152 0-.232-.076-.232-.232v-.695zm1.624-3.016l.232.231v.232c0 .312-.076.544-.232.696 0 .464-.152.695-.464.695H244.492v-.231c-.464-.309-.384-.772.232-1.393.312-.306.62-.382.928-.23m26.564-8.353c2.088-.615 3.98-1.312 5.684-2.088 4.641-2.008 8.12-4.368 10.439-7.076 2.32-2.703 3.945-5.296 4.873-7.771 1.08-2.784 1.468-5.72 1.16-8.816 0-.464-.041-1.195-.117-2.204a17.628 17.628 0 0 0-.463-2.899 9.327 9.327 0 0 0-1.045-2.552c-.463-.772-1.16-1.236-2.088-1.393-.619-.151-1.392-.231-2.32-.231-1.855-.772-3.247-1.16-4.176-1.16h-1.855c-.464 0-.775.08-.928.231-.776.156-1.78.504-3.016 1.044-1.24.544-2.785 1.433-4.641 2.668-2.168 1.393-4.256 3.288-6.264 5.685a96.265 96.265 0 0 0-5.568 7.308c0-.151.152-.54.464-1.16a22.363 22.363 0 0 1 1.74-3.248c.696-1.079 1.196-2.008 1.508-2.783.929-1.393 1.468-2.396 1.624-3.017.152-.616.54-1.235 1.16-1.855.464-.616.771-1.044.928-1.276.152-.231.309-.731.465-1.508 0-.616-.041-1.08-.117-1.393a4.927 4.927 0 0 0-.348-.928c0-.151-.04-.308-.115-.464-.08-.152-.117-.384-.117-.696-.312-.771-.659-1.392-1.043-1.855a37.875 37.875 0 0 1-1.276-1.624c-.464-.616-.929-1.044-1.392-1.276-.465-.231-1.393-.58-2.785-1.044-1.391-.464-2.475-.5-3.248-.116-.775.389-1.471.66-2.088.812v.231c-.619 0-.892.232-.812.696.076.464.036.853-.116 1.16v.464c-.156.156-.231.272-.231.349 0 .079-.08.195-.232.348 0 .312-.155.62-.464.928-.62 1.24-1.199 2.784-1.74 4.64-.543 1.856-1.119 3.561-1.74 5.104 0 .312-.035.504-.115.58-.076.08-.116.196-.116.348a687.107 687.107 0 0 0-6.148 18.908 467.268 467.268 0 0 0-5.452 19.14c0 .465-.076.853-.232 1.16-.308 1.084-.58 2.592-.812 4.524a51.686 51.686 0 0 0-.348 6.147c.156 1.704.348 3.328.58 4.872a12.984 12.984 0 0 0 1.508 4.408c0 .152.08.308.232.464.312.309.544.384.696.232a1.51 1.51 0 0 0 .696-.696c.156-.312.232-.388.232-.232.156.309.312.696.464 1.16.156.464.544.616 1.16.464h.232c.312.929.892 1.469 1.74 1.624.852.152 1.588.152 2.204 0 .156 0 .464-.231.929-.695.155-.156.231-.312.231-.464-.308-.312-.464-.812-.464-1.509 0-.695-.076-1.432-.232-2.203a13.237 13.237 0 0 1-.232-2.553c-.308-1.08-.268-2.668.116-4.756.387-2.088.967-4.408 1.74-6.96a256.332 256.332 0 0 1 2.668-8.236c1.005-2.936 1.972-5.8 2.9-8.584 5.104-8.659 9.472-14.768 13.108-18.327 3.631-3.557 6.299-5.801 8.004-6.729.308-.152.848-.152 1.623 0 .772.156 1.312.776 1.625 1.856a18.764 18.764 0 0 1-.697 6.496c-.619 1.855-1.703 3.907-3.247 6.147-1.548 2.244-4.101 4.292-7.656 6.148-1.239.312-2.244.695-3.017 1.159-.775.312-1.432.66-1.971 1.045-.545.388-.66.659-.349.812l1.392.696c.309.155.541.231.696.231-2.319 1.084-3.017 1.937-2.088 2.553.308.464.929.775 1.856.928 2.472-.309 4.756-.772 6.844-1.393m-56.258-42.919v-.464l.464-.928v-.232h-.232v-.231c0-.152.076-.232.232-.232v-.231c0-.616.076-1.08.232-1.393 0-.308.076-.616.232-.928.308-.928.464-1.312.464-1.16-.156-.464-.08-.812.232-1.044.308-.232.616-.424.928-.58h.232v-.231h-.232v-.232c.152-.152.268-.424.348-.812.076-.385.192-.656.348-.812v-.464l.464-.464c.152 0 .268-.036.348-.116.076-.076.192-.116.348-.116.308 0 .54.08.696.232 0 .312-.08.62-.232.928-.156.312-.232.62-.232.928 0 .312-.08.544-.232.696 0 .312-.08.58-.232.812-.156.232-.232.429-.232.58v.929c-.156.155-.156.231 0 .231l.232.232c0 .156-.08.231-.232.231 0 .156-.04.272-.116.349-.08.08-.116.195-.116.348v.232c0 .155-.04.231-.116.231-.08 0-.116.08-.116.232 0 .156-.08.312-.232.464-.312.312-.62.464-.928.464v.232c0 .312-.116.812-.348 1.508s-.504 1.2-.812 1.508h-.232c-.464 0-.776-.076-.928-.232v-.465zm9.976 4.755c1.392-1.623 2.24-3.052 2.552-4.292.152-.464.5-1.659 1.044-3.596.54-1.932.888-3.208 1.044-3.828.152-.308.232-.58.232-.812 0-.232.076-.5.232-.812 0-.308-.196-.655-.58-1.044-.388-.384-.736-.731-1.044-1.044-.312-.308-.812-.464-1.508-.464s-1.508-.076-2.436-.231c-.928-.152-1.508-.232-1.74-.232s-.736-.152-1.508-.464a21.976 21.976 0 0 0-1.972-.696c-.544-.152-.968-.232-1.276-.232v.232c-.156-.308-.388-.232-.696.232a10.57 10.57 0 0 0-.696 1.16c-.312 1.239-.928 3.016-1.856 5.336-.312 1.239-.812 2.823-1.508 4.756-.696 1.936-1.044 3.212-1.044 3.828 0 .619.348 1.275 1.044 1.972a6.138 6.138 0 0 0 2.436 1.508c.772.312 1.816.66 3.132 1.044 1.312.388 2.356.504 3.132.348.616-.152 1.624-1.045 3.016-2.669m-21.345 51.389c.156 0 .388.312.696.928v.463c.156.464.156.776 0 .928l-.232.465h-.232c-.308 0-.616-.152-.928-.465 0-.308.08-.54.232-.695 0-1.08.157-1.624.464-1.624m-.464-2.552c0-.309.08-.465.232-.465.464 0 .696.08.696.232.156.156.232.388.232.696v.231c0 .312-.232.464-.696.464h-.232c-.152 0-.232-.151-.232-.464V141.777zm0-2.32v-.463h.232c.156 0 .232-.076.232-.232v.232h.232c.312 0 .464.08.464.231v.464c0 .156-.076.232-.232.232 0 .156-.076.232-.232.232-.308 0-.54-.076-.696-.232v-.464zm1.161-6.496c.312 0 .464.312.464.928v.232c.156.156.156.231 0 .231v.232c0 .312-.036.62-.116.928-.076.312-.268.464-.58.464l-.464-.464c-.308-.308-.424-.731-.348-1.275.08-.54.272-.889.58-1.045 0-.151.156-.231.464-.231m-.232-1.857V130.41c0-.152.08-.232.232-.232.464-.152.696-.076.696.232.156.312.156.544 0 .695v.232c0 .312-.152.464-.464.464-.152 0-.308-.076-.464-.231l-.232-.232.232-.234zm.464-5.335h.232v-.464c0-.151.04-.268.116-.348.08-.076.116-.269.116-.58.156-.308.232-.656.232-1.044 0-.384.156-.732.464-1.044-.152 0-.232-.076-.232-.232l.232-.464v-.231l.232-.232c.156-.308.312-.888.464-1.74.156-.848.312-1.428.464-1.74a5.88 5.88 0 0 0 .348-.812c.08-.232.196-.5.348-.812.464-.615.696-1.235.696-1.855.312-.464.504-.964.58-1.508.08-.54.116-.964.116-1.276 0-.308.04-.464.116-.464.08 0 .116-.076.116-.232v-.463c.312-.308.464-.54.464-.695v-.232c.156 0 .232-.308.232-.928.308-1.08.54-1.7.696-1.856V105.823l.232-.232v-.232h.232c.152 0 .308-.151.464-.464.152-.308.232-.54.232-.696h.232c.152-.151.308-.151.464 0 .152.156.152.545 0 1.16-.156.62-.696 2.244-1.624 4.872l-.232.464v.232l-.696 2.088c-.308.776-.54 1.472-.696 2.088-.152.62-.308 1.316-.464 2.088 0 .312-.308 1.316-.928 3.017 0 .155-.036.231-.116.231-.076 0-.116.08-.116.232v.231a.991.991 0 0 1-.116.465 1.057 1.057 0 0 0-.116.464c-.152.464-.384 1.315-.696 2.552l-.696 1.392-.232.464c0 .465-.232.929-.696 1.393l.464.231V128.559l-.464.232h-.464l-.232-.232V127.864c.156 0 .232-.075.232-.231-.152 0-.232-.076-.232-.232v-.231c0-.309.04-.5.116-.58.08-.076.116-.192.116-.349v-.472zm7.888-24.36c0-.309.076-.464.232-.464.152-.152.464-.076.928.231 0 .312-.08.464-.232.464V102.336l-.232.232h-.232v.231l-.232.232v.463h-.232c-.156 0-.272-.036-.348-.116-.08-.076-.196-.116-.348-.116v-.231c0-.309.076-.54.232-.696-.001-.306.152-.614.464-.926m19.488 43.384c.152-.308.268-.5.348-.58.076-.076.192-.268.348-.58 0-.308.152-.54.464-.696.308-.151.54-.231.696-.231.152 0 .232.08.232.231v.232c0 .312-.232.696-.696 1.16s-.852.695-1.16.695h-.232v-.231zm3.248-4.408l.232-.464H237.07v.464c0 .156-.156.388-.464.696-.312.312-.544.464-.696.464-.156 0-.232-.076-.232-.232-.156 0-.232-.035-.232-.115 0-.076.076-.116.232-.116 0-.465.152-.697.464-.697m1.392-2.088h.232v-.232l.232-.231c0-.152.076-.232.232-.232.152.156.308.232.464.232v.464c0 .312-.232.464-.696.464h-.464v-.465zm2.783-3.712a3.58 3.58 0 0 1 .696-.928c0-.152.152-.385.464-.696v-.232h.464c.152 0 .232-.036.232-.115 0-.076.076-.116.232-.116.152 0 .232.08.232.231v.232c0 .312-.08.504-.232.58-.156.08-.312.271-.464.58a3.632 3.632 0 0 0-.464.58c-.156.231-.388.348-.696.348h-.232c0-.152-.08-.231-.232-.231v-.233zm3.248-4.408l.232-.464h.464c.152.156.232.312.232.464 0 .156-.156.388-.464.696-.312.312-.544.464-.696.464h-.232v-.232c-.156-.151-.156-.231 0-.231.001-.465.152-.697.464-.697m1.393-2.088v-.232h.232v-.231c.152-.152.308-.232.464-.232.464 0 .54.156.232.464-.156.156-.232.312-.232.465-.156.155-.312.231-.464.231-.156 0-.232-.076-.232-.231v-.234zm3.016-4.176h.464v.464c0 .156-.04.231-.116.231-.08 0-.116.08-.116.232l-.232.232c-.156 0-.232-.036-.232-.116 0-.076-.08-.116-.232-.116-.156-.152-.156-.232 0-.232 0-.308.076-.464.232-.464l.232-.231zm.928-1.624c0-.152.076-.309.232-.464 0-.309.152-.464.464-.464.151-.152.308-.232.464-.232l.232.232c.152.155.076.388-.232.695v.232l-.232.231-.231.232c-.312 0-.544-.076-.696-.232v-.23zm-43.036 33.292a45.417 45.417 0 0 0 3.364 2.668 20.606 20.606 0 0 0 3.712 1.855c1.856.465 3.632.696 5.336.696 1.544 0 3.248-.308 5.104-.928 1.856-.616 3.632-1.776 5.336-3.48 1.544-1.544 3.324-3.556 5.336-6.031a159.32 159.32 0 0 0 5.916-7.772 378.745 378.745 0 0 0 5.568-8.004c1.776-2.628 3.208-4.872 4.292-6.729.617-.928 1.004-1.624 1.16-2.088 0-.151.076-.308.232-.464l.464-1.16c.151-.151.231-.308.231-.464 0-.151.076-.384.232-.695v-.232c0-.152.036-.268.116-.348.076-.076.116-.269.116-.58 0-.464-.156-.696-.465-.696-.155 0-.312.08-.463.232.308-.309.424-.5.348-.58-.08-.076-.116-.5-.116-1.276v-.232h-.464v-.231c-.312 0-.696.312-1.16.928.771-1.236 1.236-2.32 1.393-3.248.151-.771-.08-1.235-.696-1.392-.312 0-.62.156-.929.464-.312.312-.504.544-.58.696-.08.155-.195.312-.347.464l-.232.231c-1.24 2.168-3.212 5.376-5.916 9.628a210.337 210.337 0 0 1-8.816 12.761c-3.172 4.256-6.264 8.004-9.28 11.252s-5.3 4.872-6.844 4.872c-1.704 0-2.824-1.08-3.364-3.248-.544-2.164-.812-4.561-.812-7.192 0-2.628.116-5.18.348-7.656.232-2.472.424-4.096.58-4.872 0-.308.076-.771.232-1.392.152-.928.696-2.86 1.624-5.8.152-.772.384-1.624.696-2.552.308-.929.616-2.009.928-3.248.152-.152.232-.309.232-.465 0-.151.076-.308.232-.464v-.464c.308-.928.464-1.468.464-1.624.152-.151.232-.308.232-.464.152-.928.232-1.312.232-1.16 0 .156-.08.544-.232 1.16l.464-1.624v-.231c.152-.465.464-1.429.928-2.9.464-1.468.696-2.356.696-2.668.152-.152.348-.928.58-2.32.232-1.392.348-2.24.348-2.552-.156-.308-.196-.5-.116-.58.076-.076-.04-.268-.348-.58-.156-.152-.388-.308-.696-.464-.62-.308-1.16-.232-1.624.232l-.464.464c-.156.464-.312.968-.464 1.508a59.673 59.673 0 0 1-.696 2.204l-.232.464c-.928 2.632-1.74 5.22-2.436 7.771a182.871 182.871 0 0 0-1.74 6.845c-.156.312-.232.544-.232.695 0 .156-.08.389-.232.696 0 .464-.156 1.16-.464 2.088 0 .312-.156.62-.464.928-.312.62-.464 1.16-.464 1.624a39.258 39.258 0 0 0-.696 4.061 29.444 29.444 0 0 1-.696 3.828v.231c-.152 1.856-.268 2.94-.348 3.248-.076.312-.192.464-.348.464-.308 0-.464-.384-.464-1.159v-2.089c.156-.151.232-.384.232-.695-.152-.309-.076-1.16.232-2.553v-.695c.156-.772.272-1.584.348-2.437.08-.848.272-1.659.58-2.436 0-.616.156-1.393.464-2.32.308-1.7.696-3.516 1.16-5.452a37.281 37.281 0 0 1 1.856-5.684c0-.152.036-.268.116-.348.076-.076.116-.192.116-.349.308-.616.616-1.392.928-2.319.308-.929.464-1.469.464-1.624a11.97 11.97 0 0 1 .696-1.624c0-.309.268-1.16.812-2.553.54-1.392 1.044-2.472 1.508-3.248-.312-.771-.544-1.659-.696-2.668-.156-1.004-.62-1.428-1.392-1.275h-.928c.152 0 .232.08.232.231h-.232V99.087h-.232c-.312 0-.544-.076-.696-.232-.156 0-.232-.075-.232-.231 0-.152.076-.308.232-.464-.312.156-.928.231-1.856.231-.776 0-1.316.464-1.624 1.393 0 .312-.04.544-.116.695-.08.156-.116.389-.116.696v.696c-.152.312-.308.66-.464 1.044-.152.388-.232.66-.232.812l-2.784 7.656-.696 1.856c-.152 0-.232.08-.232.231a.985.985 0 0 1-.116.464 1.061 1.061 0 0 0-.116.465c-.772 2.319-1.66 5.184-2.668 8.584a114.873 114.873 0 0 0-2.552 10.439c-.696 3.561-1.004 7-.928 10.324.08 3.328.892 5.996 2.436 8.004 1.083 1.551 2.204 2.827 3.364 3.831m-70.409-9.396h.232c.616 0 .928.312.928.929.308.775.152 1.159-.464 1.159h-.232c-.156 0-.388-.151-.696-.464-.156-.151-.232-.54-.232-1.16 0-.308.152-.464.464-.464m-.232-2.784c.152 0 .232-.076.232-.232h.928v.926h-.464c-.312 0-.464-.076-.464-.231l-.232-.232v-.231zm.232-1.856v-.232c0-.151.308-.231.928-.231l.232.231v.927l-.232.231h-.232c-.156 0-.272-.036-.348-.116a.491.491 0 0 0-.348-.115V141.545zm0-2.784c0-.464.152-.696.464-.696h.232c.308 0 .54.08.696.232v1.624c-.156 0-.232.08-.232.232l-.232.231c-.156 0-.388-.152-.696-.464-.156-.152-.232-.308-.232-.464v-.695zm1.624 12.528V151.985H135.921v-.465c.152-.308.384-.464.696-.464h.232l.232.233zm.463 2.552l.232.232v.231c0 .312-.08.464-.232.464-.156 0-.232.08-.232.232h-.232l-.232-.232-.232-.231v-.232c0-.151.076-.231.232-.231 0-.152.152-.232.464-.232h.232zm1.161 1.856v.463c0 .155-.08.312-.232.464-.156.156-.388.231-.696.231h-.464v-.231c0-.152-.08-.232-.232-.232V155.697h.464l.464-.465.464.232.232.233zm.695 1.856c0 .156.076.232.232.232 0 .155.036.231.116.231.076 0 .116.08.116.232l-.232.231-.232.232-.232.232c-.156 0-.232-.076-.232-.232-.156 0-.232-.076-.232-.232l-.232-.231c0-.152.076-.232.232-.232l.464-.464h.232zm12.297-43.152a76.77 76.77 0 0 0-1.972 6.96 246.485 246.485 0 0 1-1.74 6.96 55.619 55.619 0 0 0-1.276 3.248 137.97 137.97 0 0 0-1.044 3.016c-1.24 3.712-2.012 6.652-2.32 8.816a229.724 229.724 0 0 1-1.16 7.191c-.156 0-.388-.152-.696-.464-1.084-1.08-1.508-3.132-1.276-6.148.232-3.016.772-6.264 1.624-9.743a93.437 93.437 0 0 1 3.016-9.977c1.16-3.168 2.124-5.372 2.9-6.612.928-1.235 2.24-2.319 3.944-3.247m-16.009 35.264v-.464l.464-.232h.232l.232.232v.231c.152.156.232.312.232.464v.232l-.232.232h-.464c-.312 0-.464-.076-.464-.232v-.463zm37.701-102.196c-.08.08-.196.116-.348.116h-.232c-.156.156-.388.232-.696.232h-.232c-.156 0-.232-.152-.232-.465l.464-.464c.152-.151.384-.308.696-.464H173.505c.152 0 .268-.036.348-.116.076-.076.192-.116.348-.116.152 0 .308-.035.464-.115.152-.076.308-.116.464-.116h.464v.464c-.312.62-.928.928-1.856.928-.156 0-.273.04-.348.116m-4.756-1.972c-.62.312-1.084.464-1.392.464h-.232c-.156 0-.232.04-.232.116 0 .08-.08.115-.232.115-.312 0-.66.04-1.044.116-.388.08-.66.116-.812.116-.312 0-.464-.076-.464-.232v-.231c.308-.308.848-.58 1.624-.812l3.48-1.044c1.544-.464 3.788-1.08 6.728-1.855.616 0 1.004-.076 1.16-.232.152 0 .232.08.232.232v.231c-.312.62-.928 1.044-1.856 1.276-.928.232-1.856.504-2.784.812-.312 0-.58.039-.812.115-.232.08-.504.116-.812.116-.776.001-1.624.233-2.552.697m1.159 4.408H168.632c-.156.155-.388.231-.696.231h-.464c-.312 0-.464-.076-.464-.231 0-.465.308-.849.928-1.16h.464v-.232H169.328c.152-.151.308-.231.464-.231H170.488c.308.464.384.775.232.928.001.155-.311.387-.928.695m-5.104-.232h-.464l-.464.232c-.312 0-.464-.152-.464-.465-.156-.151-.08-.384.232-.695h.464l.232-.232v.232c0-.152.076-.232.232-.232l.464-.231c.152 0 .384.231.696.695-.311.463-.619.696-.928.696m25.057-10.904a23.814 23.814 0 0 0 1.972-.464c.54-.151 1.12-.308 1.74-.464.464-.152.928-.232 1.392-.232s.848-.075 1.16-.231c.928-.308 1.7-.464 2.32-.464a7.292 7.292 0 0 1 1.74-.232c.54 0 1.044-.151 1.508-.464 1.236-.308 2.396-.5 3.48-.58a15.708 15.708 0 0 0 3.248-.58c.772 0 1.468-.036 2.088-.116a27.275 27.275 0 0 0 2.088-.348c2.164-.308 4.408-.616 6.728-.928 2.32-.309 4.716-.616 7.192-.928.772-.152 1.776-.232 3.016-.232.464-.152 1.08-.232 1.856-.232h.928c1.08 0 1.624.156 1.624.465 0 .312-.62.464-1.856.464-.312 0-.62.04-.928.115a3.71 3.71 0 0 1-.928.116c-.62 0-1.16.04-1.624.116a9.723 9.723 0 0 1-1.624.116 55.017 55.017 0 0 1-5.22.696c-1.78.155-3.676.388-5.684.695l-2.784.696c-.776.156-1.588.312-2.436.464-.852.156-1.664.232-2.436.232a8.401 8.401 0 0 1-2.32.58 24.88 24.88 0 0 0-2.32.348c-2.168.464-4.372.892-6.612 1.276a39.947 39.947 0 0 0-6.612 1.739h-.232l-.232-.231v-.232c-.156-.151-.232-.384-.232-.696-.156 0-.232-.035-.232-.115 0-.076.076-.116.232-.116v-.233zm46.168-3.944h.232c.464 0 .964-.036 1.508-.116.54-.076 1.12-.116 1.74-.116 2.628 0 4.252.544 4.872 1.624.152 0 .232.04.232.116 0 .08-.08.116-.232.116 0 .155-.156.231-.464.231-.312 0-.776-.036-1.392-.116-.62-.075-1.008-.115-1.16-.115H237.769c-3.712 0-7.58.231-11.6.695A232.143 232.143 0 0 0 213.409 39c-2.012.312-3.984.66-5.916 1.044-1.936.388-3.828.812-5.684 1.276a64.938 64.938 0 0 0-5.8 1.159 63.146 63.146 0 0 1-5.8 1.16h-.232c-.156-.151-.156-.308 0-.464.152-.464.616-.812 1.392-1.044.772-.231 1.7-.424 2.784-.58.308 0 .54-.036.696-.116.152-.075.308-.115.464-.115.308 0 .54-.036.696-.116.152-.076.384-.116.696-.116 1.236-.308 2.008-.464 2.32-.464a494.45 494.45 0 0 1 4.292-.928c1.468-.309 2.9-.616 4.292-.929a2047.176 2047.176 0 0 1 17.168-2.784 9.108 9.108 0 0 1 2.9-.465 21.98 21.98 0 0 0 3.132-.231c.308 0 .58-.036.812-.116.232-.076.5-.116.812-.116.616-.151 1.468-.231 2.552-.231h.928zm3.248 4.407c-.62.312-1.472.465-2.552.465h-2.552c-1.084 0-1.624-.152-1.624-.465-.464 0-.388-.151.232-.464.308-.308.848-.464 1.624-.464h2.32c1.7 0 2.552.156 2.552.464v.464zm-11.137.465c-.156.155-.232.271-.232.348 0 .08-.08.196-.232.348h-1.392c-.156 0-.272.04-.348.116-.08.08-.196.116-.348.116h-.696c-.464 0-.696-.076-.696-.232v-.695c.152 0 .348-.076.58-.232.232-.152.888-.232 1.972-.232h1.16l.232.232v.231zm-9.743.928c0-.152.076-.232.232-.232.152 0 .232.08.232.232 0 .156-.08.231-.232.231-.157 0-.232-.075-.232-.231m-11.6 2.552c-.312.156-.62.232-.928.232-.156 0-.272.04-.348.115-.08.08-.272.116-.58.116h-.928v.232c-.312 0-.66.04-1.044.116a5.19 5.19 0 0 1-1.044.115c-.464 0-.776-.151-.928-.464v-.464c0-.152.076-.231.232-.231h.232c.308-.152.732-.232 1.276-.232.54 0 .964-.152 1.276-.464h.696c.772 0 1.236-.076 1.392-.232l.464-.231c.152 0 .384.04.696.116.308.079.464.271.464.579.152 0 .232.08.232.232-.312.312-.696.465-1.16.465m-9.976 1.392c-.312.312-.736.504-1.276.579-.544.08-.892.116-1.044.116-.312 0-.504.04-.58.116-.08.08-.196.116-.348.116-.464 0-.696-.152-.696-.464v-.464c.308-.309.848-.465 1.624-.465h1.16c.308 0 .54-.075.696-.231h.232l.232.231v.466zm-9.048 1.16l.232-.464c.308 0 .464.156.464.464 0 .156-.08.312-.232.464 0 .156-.156.232-.464.232l-.232-.232c0-.151.076-.231.232-.231v-.233zm-17.168 57.419c.772-.231 1.624-.5 2.552-.812 1.08-.308 2.32-.696 3.712-1.16a48.186 48.186 0 0 0 1.74-.464c.54-.152 1.12-.308 1.74-.464l5.568-1.393a64.586 64.586 0 0 1 5.8-1.159c.308-.152.928-.232 1.856-.232h1.856c.308-.152.732-.232 1.276-.232h1.508c.308-.151.772-.231 1.392-.231H200.649c.152-.152.308-.232.464-.232.772-.151 1.66-.268 2.668-.348a35.866 35.866 0 0 1 2.668-.116c.772 0 1.236.08 1.392.232v.231c-.156.312-.928.544-2.32.696-1.392.156-2.244.232-2.552.232-.928.155-1.856.271-2.784.348-.928.08-1.78.196-2.552.348a62.985 62.985 0 0 0-7.424 1.392c-1.548.312-3.016.58-4.408.812a66.439 66.439 0 0 1-4.408.58c-.312.156-.62.272-.928.348a4.71 4.71 0 0 0-.928.349c-.62.156-1.24.312-1.856.464-.62.156-1.24.232-1.856.232-.156.155-.312.231-.464.231-1.24.312-2.36.66-3.364 1.044-1.008.388-1.74.58-2.204.58-.156 0-.272-.036-.348-.116-.08-.076-.196-.116-.348-.116 0-.151.076-.308.232-.464 0-.151.383-.347 1.16-.58m-.928-2.899c.308-.309.54-.464.696-.464h.464c.152 0 .232.155.232.464 0 .312-.388.464-1.16.464l-.232-.232v-.232zm4.64-1.624l.464-.232h.232l.232-.231h.232c.308 0 .464.231.464.695v.232h-.232c-.312.312-.696.464-1.16.464-.312 0-.464-.076-.464-.231v-.465l.232-.232zm4.175-1.16h.464c.152 0 .232.08.232.232.152 0 .232.04.232.115 0 .08-.08.116-.232.116 0 .62-.232.696-.696.232-.156 0-.232.08-.232.231h-.232l-.232-.464c.153-.306.384-.462.696-.462m5.801-1.16c.308 0 .464.08.464.232l-.232.231c-.312.312-.544.464-.696.464h-.232c-.156 0-.232-.035-.232-.115 0-.076-.08-.116-.232-.116 0-.309.076-.464.232-.464.151-.152.463-.232.928-.232m3.248-.697c.464 0 .696-.075.696-.231h.232c.152 0 .232.08.232.231v.232c-.312.312-.696.464-1.16.464h-.232l-.232.232-.464-.232v-.463c.151-.153.463-.233.928-.233m3.247-.695c.152-.152.464-.232.928-.232.616-.308 1.16-.384 1.624-.231.464 0 .696.08.696.231 0 .312-.232.544-.696.696h-.232c-.312 0-.544.08-.696.231h-1.392c-.156 0-.232-.075-.232-.231-.156 0-.232-.152-.232-.464h.232zm7.889-.928c.152-.152.384-.232.696-.232h.464c.152 0 .232.08.232.232v.231c-.156 0-.232.08-.232.232H199.025c-.312 0-.464-.076-.464-.232v-.231zm4.64-.696c.152.312.384.312.696 0 .152 0 .232.08.232.231v.232l-.232.232-.232.231h-.928c-.464 0-.776-.076-.928-.231 0-.152.076-.309.232-.465.151-.15.54-.23 1.16-.23m4.64-.232c.928 0 1.468.04 1.624.116.152.08.232.196.232.348 0 .156-.08.232-.232.232-.156.156-.62.232-1.392.232-.928 0-1.472-.036-1.624-.116-.156-.076-.232-.192-.232-.349v-.231c0-.152.539-.232 1.624-.232m-67.512 72.5c.152.076.308.269.464.58l.464.232.464.231h.232c.152.309.384.309.696 0 .308-.312.464-1.16.464-2.552.152-.312.232-.66.232-1.044 0-.388.076-.736.232-1.044.152-.464.308-.776.464-.928.152-.156.232 0 .232.464 0 .616-.04 1.235-.116 1.855-.08.616-.116 1.16-.116 1.624 0 .309-.04.54-.116.696a.985.985 0 0 0-.116.464c.152.464.384.696.696.696 1.08.152 1.7 0 1.856-.464.152-.312.268-.504.348-.58.076-.08.192-.272.348-.58.152-.156.268-.116.348.116.076.231.268.424.58.58h.232c.152 0 .424-.04.812-.116.384-.08.656-.66.812-1.74v-.232c.152-.312.232-.544.232-.695 0-.156.076-.389.232-.696 0-.312.036-.544.116-.696.076-.155.116-.312.116-.464.308-.62.5-1.624.58-3.016a20.75 20.75 0 0 1 .58-3.944c.152-.928.308-1.508.464-1.74.152-.231.232-.464.232-.695 0-.232.036-.58.116-1.044.076-.464.268-1.236.58-2.32.152-.464.232-.928.232-1.392 0-.465.076-.929.232-1.393 1.7-5.412 3.44-11.136 5.22-17.168 1.776-6.032 3.596-12.216 5.452-18.56 2.472-1.7 5.836-3.168 10.092-4.408a149.383 149.383 0 0 1 12.876-3.132c4.328-.849 8.236-1.468 11.716-1.856 3.48-.384 5.684-.656 6.612-.812 1.7-.309 2.82-.424 3.364-.349.54.08 1.352-.191 2.436-.812.616-.464 1.08-1.468 1.392-3.017v-1.855c-.156-.772-.62-1.312-1.392-1.624-.776-.308-1.704-.54-2.784-.696a34.732 34.732 0 0 0-4.176-.231c-3.712.312-8.896.968-15.544 1.972-6.652 1.008-13.456 2.592-20.416 4.756 2.164-6.34 4.212-12.256 6.148-17.748 1.932-5.488 3.516-10.244 4.756-14.268a83.184 83.184 0 0 1 2.784-6.265c.616-1.235 1.004-2.088 1.16-2.552.152-.464.308-.848.464-1.16a4.31 4.31 0 0 0 .348-1.044c.076-.384.348-1.12.812-2.204.308-.615.696-1.275 1.16-1.972s.848-1.428 1.16-2.204c4.484-.616 9.24-1.312 14.268-2.088 5.024-.771 9.896-1.508 14.616-2.204a486.604 486.604 0 0 1 12.876-1.74c3.864-.464 6.804-.771 8.816-.928 2.936-.151 5.064-.076 6.38.232 1.312.312 2.164.812 2.552 1.508.384.696.5 1.472.348 2.32-.156.852-.312 1.664-.464 2.436a3.544 3.544 0 0 0 .232 2.204c.308.696.772 1.124 1.392 1.276.616.155 1.312 0 2.087-.465.773-.464 1.625-1.468 2.553-3.016a8.353 8.353 0 0 0 1.044-4.524c-.08-1.623-.349-3.052-.812-4.292a18.332 18.332 0 0 0-2.553-4.407c-1.548-2.164-4.524-3.517-8.932-4.061-4.408-.54-9.552-.58-15.428-.116-5.88.465-12.144 1.276-18.792 2.437a358.791 358.791 0 0 0-19.024 3.828v-.232c-.928-1.08-1.472-1.932-1.624-2.552-.312-.616-1.78-.928-4.408-.928-1.392 0-2.552.852-3.48 2.552-.928 1.704-1.548 3.016-1.856 3.944-2.168.62-4.176 1.159-6.032 1.624-1.856.464-3.404.852-4.64 1.159-1.548.465-2.94.853-4.176 1.16l-1.392.464c-1.084.312-1.936.696-2.552 1.16-.464.156-.544.312-.232.464.308.156.696.349 1.16.58.464.232.888.504 1.276.812.384.312.58.62.58.928-.312.776-.196 1.316.348 1.624.54.312.656 1.008.348 2.088-.156.464.152.736.928.812.772.08 1.7.04 2.784-.116a69.56 69.56 0 0 0 3.944-.696c.616-.152 1.7-.384 3.248-.696a283.426 283.426 0 0 0-3.248 8.469c-.928 2.552-2.088 6.071-3.48 10.556a825.115 825.115 0 0 1-4.64 14.5 1753.765 1753.765 0 0 0-5.8 17.98c-2.168.928-4.176 1.972-6.032 3.132s-3.48 2.359-4.872 3.596c-3.56 2.94-6.264 6.924-8.12 11.948-1.856 5.027-3.212 10.092-4.06 15.195-.852 5.104-1.196 9.708-1.044 13.805.152 4.1.54 6.691 1.16 7.771 1.392 2.013 2.82 3.48 4.292 4.408 1.468.928 2.588 1.776 3.364 2.552.001.311.076.503.233.583"/>
  </g>
  <path fill="#FFF" stroke="#FFF" d="M187.311 172.856l-.044-.264h.44l.044.176 3.015 13.796 5.148-13.817c.066-.177.33-.177.396 0l5.149 13.817 3.015-13.796.044-.176h.44l-.044.264-3.168 14.522c-.044.198-.352.22-.418.021l-5.215-13.949-5.215 13.949c-.066.198-.374.177-.418-.021l-3.169-14.522zm31.682-.263h.22v.44h-10.121v6.82h7.415v.44h-7.415v6.821h10.121v.439h-10.342c-.132 0-.22-.088-.22-.22V172.811c0-.132.088-.22.22-.22h10.122zm12.335 7.345c1.872.365 3.285 1.878 3.285 3.657 0 2.046-1.87 3.74-4.159 3.74h-6.183c-.132 0-.22-.088-.22-.22l.011-6.843-.011-.001.011-.209.011-7.008c0-.132.088-.22.22-.22l5.258-.022c2.311 0 4.181 1.694 4.181 3.741 0 1.484-.983 2.783-2.404 3.385zm-6.826-.063l5.05-.021c2.046 0 3.741-1.474 3.741-3.3 0-1.827-1.694-3.301-3.741-3.301h-5.061l.011 6.622zm0 .419l.011 6.623 5.941-.022c2.024 0 3.719-1.474 3.719-3.3 0-1.827-1.694-3.301-3.719-3.301h-5.952zm25.289 7.261c-.132 0-.22-.088-.22-.22v-14.522c0-.132.088-.22.22-.22h5.522c3.455.286 6.051 3.652 5.699 7.481.352 3.828-2.244 7.194-5.699 7.48h-5.522zm.22-.44h5.281c3.213-.286 5.588-3.433 5.281-7.02v-.044c.307-3.587-2.068-6.733-5.281-7.019h-5.281v14.083zm25.961-14.522h.221v.44h-10.121v6.82H273.486v.44H266.072v6.821h10.121v.439h-10.342c-.132 0-.22-.088-.22-.22V172.811c0-.132.088-.22.22-.22h10.121zm13.618 3.85v.22h-.44v-.22c0-1.914-1.979-3.41-4.378-3.41s-4.379 1.496-4.379 3.41c0 3.389 9.682 3.389 9.659 7.261 0 2.047-2.354 3.851-5.28 3.851-2.993 0-5.28-1.782-5.28-3.851v-.22h.439v.22c0 1.893 2.2 3.411 4.841 3.411 2.574 0 4.841-1.541 4.841-3.411 0-3.454-9.638-3.41-9.66-7.261 0-2.091 2.113-3.851 4.819-3.851s4.818 1.761 4.818 3.851zm4.883-3.631v-.22h.44V187.554h-.44v-14.742zm11.903 7.482h-.221v-.44h6.557c.133 0 .221.088.221.221 0 4.158-2.971 7.48-6.579 7.48-3.63 0-6.622-3.322-6.622-7.48 0-4.159 2.992-7.481 6.622-7.481 2.486-.022 4.819 1.519 5.677 3.19l.154.33h-.485l-.066-.11c-.813-1.584-2.97-2.992-5.28-2.97-3.41 0-6.183 3.146-6.183 7.041s2.772 7.041 6.183 7.041c3.389 0 6.14-3.146 6.14-6.821h-6.118zm11.615 7.041v.22h-.44v-14.742c0-.198.286-.286.396-.132l10.145 13.972.021-13.84v-.22h.439v.22l-.021 14.522c0 .198-.285.286-.396.132l-10.143-13.972v13.84z"/>
  <g>
    <defs>
      <path id="m" d="M-306.332 23.371h769.001v567h-769.001z"/>
    </defs>
    <clipPath id="n">
      <use xlink:href="#m" overflow="visible"/>
    </clipPath>
    <path clip-path="url(#n)" fill="none" stroke="#FFF" stroke-width="2" d="M8.242 358.924l-.044-.264h.44l.044.176 3.014 13.794 5.148-13.815c.066-.176.33-.176.396 0l5.148 13.815 3.014-13.794.044-.176h.44l-.044.264-3.168 14.521c-.044.198-.352.22-.418.022l-5.214-13.948-5.214 13.948c-.066.197-.374.176-.418-.022l-3.168-14.521zM39.922 358.66h.22v.44H30.022v6.819h7.414v.44h-7.414v6.82H40.142v.439h-10.34c-.132 0-.22-.088-.22-.22v-14.52c0-.132.088-.22.22-.22h10.12zM45.433 366.36l.011 6.622 5.94-.022c2.024 0 3.718-1.474 3.718-3.3s-1.694-3.3-3.718-3.3H45.433zm-.001-.419l5.05-.021c2.046 0 3.74-1.474 3.74-3.3s-1.694-3.3-3.74-3.3h-5.06l.01 6.621zm6.825.063c1.872.365 3.285 1.878 3.285 3.656 0 2.046-1.87 3.74-4.158 3.74h-6.182c-.132 0-.22-.088-.22-.22l.01-6.842-.01-.001.011-.21.011-7.006c0-.132.088-.22.22-.22l5.258-.022c2.31 0 4.18 1.694 4.18 3.74 0 1.485-.984 2.783-2.405 3.385zM70.942 373.181h5.279c3.213-.286 5.588-3.433 5.281-7.019v-.044c.307-3.586-2.068-6.731-5.281-7.018h-5.279v14.081zm-.221.439c-.131 0-.219-.088-.219-.22v-14.52c0-.132.088-.22.219-.22h5.522c3.454.286 6.05 3.652 5.698 7.48.352 3.828-2.244 7.193-5.698 7.479h-5.522zM96.902 358.66h.22v.44H87.002v6.819h7.414v.44h-7.414v6.82H97.122v.439h-10.34c-.133 0-.221-.088-.221-.22v-14.52c0-.132.088-.22.221-.22h10.12zM110.52 362.511v.22h-.44v-.22c0-1.914-1.979-3.41-4.378-3.41s-4.378 1.496-4.378 3.41c0 3.388 9.681 3.388 9.657 7.26 0 2.046-2.354 3.85-5.279 3.85-2.992 0-5.279-1.782-5.279-3.85v-.22h.439v.22c0 1.892 2.199 3.41 4.84 3.41 2.574 0 4.84-1.54 4.84-3.41 0-3.454-9.636-3.41-9.658-7.26 0-2.091 2.112-3.851 4.818-3.851s4.818 1.76 4.818 3.851zM115.403 358.88v-.22h.441v14.96h-.441v-.22zM127.305 366.36h-.22v-.44h6.556c.133 0 .221.088.221.221 0 4.157-2.971 7.479-6.578 7.479-3.631 0-6.623-3.322-6.623-7.479 0-4.158 2.992-7.48 6.623-7.48 2.486-.021 4.818 1.519 5.676 3.19l.154.33h-.484l-.066-.11c-.813-1.584-2.97-2.992-5.279-2.97-3.41 0-6.182 3.146-6.182 7.04s2.771 7.04 6.182 7.04c3.388 0 6.138-3.146 6.138-6.82h-6.118zM138.92 373.4v.22h-.439v-14.74c0-.197.286-.285.396-.132l10.142 13.971.022-13.839v-.22h.439v.22l-.021 14.521c0 .198-.287.286-.396.132l-10.143-13.97V373.4z"/>
  </g>
</svg>